<?xml version="1.0" standalone="no"?>
<!DOCTYPE svg PUBLIC "-//W3C//DTD SVG 20010904//EN"
 "http://www.w3.org/TR/2001/REC-SVG-20010904/DTD/svg10.dtd">
<svg version="1.0" xmlns="http://www.w3.org/2000/svg"
 width="996.000000pt" height="892.000000pt" viewBox="0 0 996.000000 892.000000"
 preserveAspectRatio="xMidYMid meet">
<metadata>
Created by potrace 1.16, written by Peter Selinger 2001-2019
</metadata>
<g transform="translate(0.000000,892.000000) scale(0.100000,-0.100000)"
fill="#000000" stroke="none">
<path d="M4717 7232 l-247 -247 0 -465 0 -465 -288 288 -287 287 -348 0 -347
0 0 -352 0 -353 307 -307 308 -308 -507 0 -508 0 -237 -241 c-131 -132 -240
-245 -241 -250 -2 -5 105 -120 239 -254 l243 -245 875 0 875 0 206 205 205
204 206 -204 205 -205 875 0 875 0 243 245 c134 134 241 249 239 254 -1 6
-111 118 -242 251 l-239 240 -506 0 -506 0 308 308 307 307 0 353 0 352 -347
0 -348 0 -287 -287 -288 -288 0 465 0 465 -248 248 -247 247 -248 -248z m693
-782 l0 -515 323 323 322 322 313 0 312 0 0 -312 0 -313 -347 -347 -348 -348
562 0 561 0 211 -217 c116 -120 211 -222 210 -228 0 -5 -95 -108 -211 -227
l-210 -218 -852 0 -852 0 -74 76 c-41 41 -141 139 -222 216 l-147 140 -219
-216 -219 -216 -849 0 -849 0 -130 133 c-72 72 -170 173 -218 223 l-88 90 217
222 216 222 561 0 562 0 -348 348 -347 347 0 313 0 312 312 0 313 0 322 -322
323 -323 0 515 0 515 222 222 223 223 222 -222 223 -223 0 -515z"/>
<path d="M1660 4060 c0 -20 7 -20 3305 -20 3298 0 3305 0 3305 20 0 20 -7 20
-3305 20 -3298 0 -3305 0 -3305 -20z"/>
<path d="M4132 3919 c-293 -49 -482 -255 -482 -526 0 -258 148 -441 410 -510
100 -26 290 -23 409 6 93 23 93 23 112 65 22 50 49 151 49 183 0 43 -36 28
-69 -29 -101 -177 -287 -231 -470 -138 -62 31 -139 106 -169 166 -46 92 -57
145 -57 274 0 107 3 135 24 192 75 206 274 309 480 247 62 -18 134 -88 162
-154 19 -45 27 -55 47 -55 23 0 24 2 19 48 -4 26 -9 81 -13 123 l-7 76 -51 12
c-140 30 -286 38 -394 20z"/>
<path d="M5040 3914 c-185 -50 -267 -222 -185 -390 33 -67 89 -118 208 -188
122 -72 150 -96 176 -149 25 -51 28 -135 6 -177 -35 -67 -132 -101 -220 -76
-63 19 -140 95 -182 180 -22 45 -32 56 -52 56 -24 0 -24 -1 -18 -72 11 -120
26 -159 74 -186 144 -79 381 -60 489 40 63 59 88 117 89 208 0 143 -68 231
-259 335 -116 64 -170 114 -186 174 -17 65 11 137 65 171 103 64 241 12 294
-111 18 -41 26 -50 44 -47 20 3 22 8 19 58 -1 30 -7 78 -13 106 l-10 51 -82
17 c-100 20 -184 20 -257 0z"/>
<path d="M5891 3914 c-67 -18 -109 -43 -154 -93 -44 -49 -61 -100 -61 -177 1
-121 71 -213 232 -304 107 -60 141 -88 174 -139 51 -81 34 -201 -34 -245 -41
-26 -113 -37 -164 -25 -63 16 -142 91 -185 174 -27 51 -39 65 -56 65 -27 0
-29 -25 -12 -129 14 -89 30 -115 86 -139 226 -97 495 -13 548 172 48 165 -29
302 -230 411 -169 91 -211 141 -203 243 4 49 9 59 45 93 97 91 254 45 312 -92
18 -41 26 -50 44 -47 20 3 22 8 19 58 -1 30 -7 78 -13 106 l-10 51 -82 17
c-99 19 -184 20 -256 0z"/>
<path d="M1660 2740 c0 -20 7 -20 3305 -20 3298 0 3305 0 3305 20 0 20 -7 20
-3305 20 -3298 0 -3305 0 -3305 -20z"/>
<path d="M2380 2280 c0 -22 5 -30 18 -30 15 0 38 -53 123 -282 l105 -283 35
-3 35 -3 105 282 c75 202 109 283 122 286 11 4 17 15 17 34 0 25 -4 29 -28 29
-16 0 -36 -6 -45 -12 -14 -11 -187 -466 -199 -523 -3 -14 -10 -3 -22 35 -56
167 -178 485 -189 492 -6 4 -27 8 -44 8 -30 0 -33 -3 -33 -30z"/>
<path d="M4690 2286 c0 -18 6 -25 23 -28 l22 -3 3 -287 2 -288 30 0 30 0 0
113 c0 61 5 130 10 151 18 78 84 136 156 136 94 0 104 -21 104 -219 0 -173 4
-181 76 -181 40 0 44 2 44 25 0 17 -5 25 -18 25 -37 0 -42 20 -42 162 0 195
-21 237 -125 246 -68 6 -134 -17 -169 -59 -14 -16 -27 -29 -30 -29 -3 0 -6 53
-6 118 0 78 -4 122 -12 130 -7 7 -31 12 -55 12 -39 0 -43 -2 -43 -24z"/>
<path d="M3014 2121 c-112 -51 -159 -207 -98 -329 56 -113 202 -154 324 -92
49 25 53 32 34 59 -14 20 -18 21 -33 7 -44 -40 -135 -49 -196 -20 -41 19 -80
72 -90 121 l-6 33 173 2 173 3 -1 52 c-2 68 -36 130 -89 160 -50 29 -133 30
-191 4z m183 -75 c22 -24 33 -46 33 -66 l0 -30 -135 0 c-125 0 -135 1 -135 19
0 10 10 33 23 52 52 78 154 90 214 25z"/>
<path d="M3575 2133 c-39 -8 -68 -28 -91 -63 l-24 -35 0 28 c0 52 -16 67 -70
67 -46 0 -50 -2 -50 -24 0 -19 6 -25 28 -28 l27 -3 3 -197 2 -198 30 0 30 0 0
118 c0 64 5 135 11 157 16 55 77 115 118 115 30 0 32 2 29 32 -3 33 -10 38
-43 31z"/>
<path d="M3734 2120 c-45 -23 -64 -53 -64 -105 0 -50 35 -83 141 -135 51 -25
97 -52 103 -61 17 -30 -2 -69 -42 -86 -45 -19 -106 -7 -156 32 -25 19 -35 22
-44 13 -23 -23 -12 -47 32 -73 85 -50 182 -46 241 9 30 29 35 40 35 79 0 64
-31 97 -128 137 -117 49 -143 81 -104 130 37 45 153 33 160 -18 3 -17 10 -22
33 -22 32 0 37 17 20 63 -21 55 -148 76 -227 37z"/>
<path d="M4405 2128 c-142 -50 -197 -240 -105 -367 70 -96 217 -119 324 -51
46 29 46 30 31 54 l-16 25 -36 -25 c-47 -31 -73 -38 -134 -32 -107 11 -167
103 -145 222 14 76 111 145 185 131 48 -9 81 -31 81 -55 0 -16 7 -20 30 -20
27 0 30 3 30 33 0 39 -27 68 -79 86 -41 14 -125 13 -166 -1z"/>
<path d="M5362 2129 c-18 -6 -50 -27 -72 -49 -70 -70 -89 -195 -42 -287 53
-102 177 -148 293 -108 69 24 85 40 71 69 l-11 25 -46 -26 c-77 -43 -166 -32
-222 29 -24 26 -43 69 -43 99 0 18 9 19 170 19 l170 0 0 48 c-1 81 -48 157
-113 181 -34 13 -109 13 -155 0z m146 -59 c18 -11 40 -36 48 -55 27 -66 29
-65 -126 -65 -155 0 -157 1 -117 61 50 75 129 99 195 59z"/>
<path d="M5896 2130 c-34 -11 -63 -35 -87 -75 l-19 -30 0 41 c0 52 -13 64 -72
64 -44 0 -48 -2 -48 -24 0 -19 6 -25 28 -28 l27 -3 3 -197 2 -198 29 0 29 0 4
133 c3 111 8 139 26 174 28 54 66 83 109 83 33 0 34 2 31 32 -3 36 -16 42 -62
28z"/>
<path d="M6742 2123 c-18 -8 -46 -31 -62 -50 l-30 -34 0 34 c0 45 -15 57 -72
57 -44 0 -48 -2 -48 -24 0 -19 6 -25 28 -28 l27 -3 3 -197 2 -198 30 0 30 0 0
123 c0 140 8 179 47 220 39 41 75 57 126 57 34 0 49 -6 68 -26 23 -25 24 -32
27 -187 2 -93 8 -167 14 -174 6 -7 32 -13 59 -13 45 0 49 2 49 24 0 19 -6 25
-27 28 l-28 3 -5 160 c-6 174 -11 194 -63 225 -40 25 -128 26 -175 3z"/>
<path d="M7185 2125 c-43 -24 -65 -45 -86 -87 -57 -112 -16 -284 80 -332 70
-36 155 -27 212 22 l32 27 -7 -60 c-3 -33 -15 -71 -24 -85 -41 -56 -133 -75
-217 -45 -21 8 -40 13 -41 12 -1 -1 -7 -12 -13 -25 -11 -21 -9 -24 26 -39 24
-11 66 -17 113 -17 107 0 169 36 205 119 5 11 12 119 15 240 5 219 5 220 28
223 16 3 22 10 22 28 0 24 -3 25 -47 22 -38 -2 -50 -8 -57 -25 l-10 -21 -34
26 c-44 34 -149 43 -197 17z m167 -61 c42 -22 61 -68 62 -149 0 -110 -38 -165
-121 -172 -58 -6 -108 23 -135 77 -22 43 -24 150 -4 188 39 75 117 97 198 56z"/>
<path d="M4040 2106 c0 -19 6 -25 28 -28 l27 -3 3 -184 c1 -115 7 -189 13
-198 7 -7 32 -13 60 -13 45 0 49 2 49 24 0 19 -6 25 -27 28 l-28 3 -3 184 c-1
115 -7 189 -13 198 -7 7 -32 13 -60 13 -45 0 -49 -2 -49 -24z"/>
<path d="M6010 2106 c0 -19 6 -25 28 -28 l27 -3 5 -155 c6 -175 16 -206 74
-234 72 -34 162 -14 222 50 l34 35 0 -33 c0 -45 15 -58 67 -58 39 0 43 2 43
24 0 18 -6 25 -22 28 -23 3 -23 4 -26 201 l-2 197 -29 0 -28 0 -5 -133 c-4
-117 -7 -138 -29 -177 -31 -56 -80 -90 -131 -90 -91 0 -108 36 -108 233 0 98
-4 147 -12 155 -7 7 -34 12 -60 12 -44 0 -48 -2 -48 -24z"/>
</g>
</svg>
