<svg id="svg" version="1.1" xmlns="http://www.w3.org/2000/svg" xmlns:xlink="http://www.w3.org/1999/xlink" width="400" height="400" viewBox="0, 0, 400,400"><g id="svgg"><path id="path0" d="M0.000 200.000 L 0.000 400.000 200.000 400.000 L 400.000 400.000 400.000 200.000 L 400.000 0.000 200.000 0.000 L 0.000 0.000 0.000 200.000 M178.400 114.018 C 180.559 114.294,183.041 114.965,185.200 115.856 C 191.717 118.546,191.941 118.584,197.292 117.869 C 202.224 117.210,203.404 117.337,204.899 118.690 C 206.420 120.066,205.110 125.046,202.436 128.059 L 200.905 129.784 202.815 131.592 C 205.698 134.323,206.388 138.664,204.849 144.400 C 204.163 146.954,204.166 147.020,204.976 148.133 C 205.693 149.119,205.800 149.854,205.800 153.813 L 205.800 158.360 206.600 157.359 C 207.898 155.736,215.000 155.240,217.228 156.617 C 217.434 156.744,217.600 156.130,217.600 155.243 C 217.600 148.463,220.191 146.657,228.055 147.954 L 229.910 148.260 230.188 145.447 C 230.754 139.701,233.337 138.218,240.400 139.583 C 242.610 140.010,242.462 140.176,242.778 136.909 C 243.288 131.642,244.784 130.504,250.564 130.986 C 254.584 131.320,254.301 131.115,256.090 135.000 C 258.236 139.661,258.385 140.156,259.023 144.702 C 259.709 149.586,260.268 150.798,263.780 155.020 C 269.211 161.548,267.059 164.970,257.964 164.269 L 254.896 164.032 254.714 166.234 C 254.418 169.797,250.489 173.105,244.300 175.004 C 243.035 175.392,242.000 175.922,242.000 176.183 C 242.000 177.979,236.178 182.093,232.102 183.178 C 231.168 183.426,230.178 183.910,229.902 184.253 C 226.469 188.517,222.599 191.158,218.861 191.790 C 217.646 191.995,217.217 192.277,217.038 192.990 C 216.687 194.389,213.213 197.298,210.308 198.625 L 207.736 199.800 207.241 202.400 C 206.556 205.999,206.573 207.540,207.321 209.400 C 208.146 211.450,208.195 216.812,207.417 219.800 C 206.877 221.873,206.889 222.150,207.583 223.520 C 208.950 226.219,208.975 230.654,207.653 235.792 C 207.334 237.030,207.365 237.519,207.791 237.992 C 209.302 239.666,209.586 246.536,208.292 250.093 C 207.560 252.101,207.564 252.099,205.788 251.194 C 204.932 250.757,203.497 250.400,202.599 250.400 C 200.225 250.400,196.859 249.426,193.312 247.713 C 189.851 246.042,188.280 245.905,180.297 246.585 C 176.752 246.887,176.316 246.848,175.552 246.159 C 173.865 244.638,175.145 239.513,178.033 236.223 C 179.514 234.537,179.490 234.490,175.861 232.041 C 172.241 229.598,171.230 227.966,171.865 225.586 C 172.253 224.135,172.229 223.982,171.651 224.222 C 170.837 224.560,168.358 225.235,167.727 225.291 C 167.466 225.314,167.157 225.718,167.039 226.188 C 166.493 228.362,162.103 231.555,157.905 232.832 C 154.661 233.819,154.800 233.857,154.800 231.987 C 154.800 231.041,154.368 229.522,153.757 228.315 C 152.164 225.172,151.654 223.455,151.187 219.672 C 150.654 215.349,149.566 212.925,146.666 209.602 C 141.036 203.152,142.504 200.181,151.300 200.216 L 155.200 200.231 155.210 197.416 C 155.235 189.990,158.315 187.758,166.058 189.558 L 167.516 189.897 167.786 187.007 C 167.960 185.159,168.360 183.628,168.898 182.759 C 169.360 182.011,170.250 180.386,170.877 179.147 C 171.503 177.909,172.796 176.057,173.750 175.032 L 175.484 173.170 173.231 171.589 C 168.526 168.289,168.433 165.914,172.796 160.521 L 174.788 158.059 172.799 156.600 C 167.869 152.980,167.884 150.769,172.881 144.726 L 174.431 142.852 172.623 141.792 C 167.239 138.637,167.569 133.327,173.444 128.561 C 173.873 128.214,173.519 127.801,171.731 126.571 C 166.912 123.251,166.790 120.463,171.248 115.462 C 172.803 113.718,173.462 113.245,174.132 113.393 C 174.609 113.498,176.530 113.780,178.400 114.018 M114.960 139.342 C 119.853 143.075,120.146 149.061,115.595 152.358 C 114.724 152.988,108.564 156.523,101.906 160.212 C 95.248 163.901,87.460 168.221,84.600 169.812 C 76.704 174.205,68.949 178.490,65.500 180.368 C 63.795 181.297,62.401 182.178,62.401 182.328 C 62.403 182.584,65.830 184.555,78.200 191.417 C 81.060 193.003,85.830 195.655,88.800 197.309 C 91.770 198.964,97.980 202.388,102.600 204.920 C 118.482 213.621,120.527 215.767,118.375 221.474 C 116.026 227.706,110.952 228.090,101.400 222.758 C 98.980 221.407,94.390 218.855,91.200 217.087 C 80.344 211.069,75.809 208.546,63.000 201.398 C 49.825 194.046,44.218 190.936,34.700 185.701 C 31.675 184.038,29.201 182.569,29.201 182.438 C 29.203 182.191,32.497 180.287,41.400 175.387 C 47.610 171.970,54.769 167.995,64.800 162.395 C 68.870 160.123,74.360 157.063,77.000 155.595 C 79.640 154.128,84.230 151.575,87.200 149.922 C 111.374 136.474,111.257 136.518,114.960 139.342 M287.682 138.564 C 288.976 139.026,300.173 145.124,314.200 153.006 C 316.620 154.365,321.300 156.973,324.600 158.800 C 327.900 160.627,332.580 163.234,335.000 164.593 C 337.420 165.953,343.270 169.200,348.000 171.810 C 365.033 181.209,366.830 182.278,366.300 182.703 C 365.877 183.042,335.719 199.894,326.400 204.998 C 324.750 205.902,316.020 210.757,307.000 215.787 C 290.759 224.845,286.867 226.802,285.108 226.798 C 277.906 226.780,274.356 217.634,279.721 212.923 C 281.294 211.542,281.678 211.322,305.900 197.940 C 309.145 196.148,313.960 193.472,316.600 191.995 C 323.011 188.408,329.372 184.881,331.697 183.625 C 334.166 182.290,334.433 182.614,327.900 179.017 C 317.376 173.222,311.837 170.163,305.800 166.812 C 302.500 164.981,297.190 162.047,294.000 160.292 C 277.941 151.459,277.190 150.834,277.209 146.320 C 277.233 140.443,282.344 136.659,287.682 138.564 M203.163 290.561 C 204.343 291.189,204.729 291.219,206.028 290.791 C 209.519 289.639,210.804 291.336,210.794 297.087 C 210.783 303.831,206.533 306.224,204.457 300.656 C 202.517 295.456,194.497 294.051,190.798 298.263 C 187.726 301.762,189.969 303.934,198.600 305.819 C 208.358 307.949,212.006 311.060,211.998 317.246 C 211.987 326.007,200.846 331.049,190.310 327.062 C 188.630 326.426,187.527 326.195,187.371 326.446 C 186.415 327.993,183.270 327.551,182.452 325.754 C 181.514 323.696,181.876 316.888,182.982 315.782 C 184.910 313.853,187.057 314.603,188.348 317.654 C 191.138 324.249,207.709 322.758,205.375 316.121 C 204.799 314.484,202.970 313.662,196.200 312.000 C 189.367 310.322,187.363 309.335,185.356 306.659 C 180.842 300.641,183.909 292.699,191.730 290.155 C 194.184 289.356,201.377 289.612,203.163 290.561 M130.896 291.232 C 139.782 294.226,142.169 304.758,135.326 310.782 C 131.842 313.848,129.749 314.561,123.710 314.738 L 118.400 314.893 118.400 318.011 L 118.400 321.129 122.836 321.265 C 128.511 321.438,130.494 323.418,128.036 326.456 C 127.272 327.400,112.322 328.169,109.330 327.418 C 105.233 326.390,106.442 321.200,110.780 321.200 L 112.000 321.200 112.000 309.000 L 112.000 296.800 111.026 296.800 C 107.415 296.800,105.523 293.640,107.782 291.382 L 108.764 290.400 118.594 290.400 C 127.494 290.400,128.659 290.479,130.896 291.232 M168.695 304.500 C 171.827 312.255,174.590 319.185,174.834 319.900 C 175.192 320.946,175.494 321.200,176.385 321.200 C 179.114 321.200,180.567 324.316,178.836 326.456 C 177.419 328.208,165.269 328.099,163.611 326.320 C 161.538 324.094,163.442 321.200,166.980 321.200 C 168.625 321.200,168.590 321.291,167.757 319.208 L 167.113 317.600 159.567 317.600 L 152.021 317.600 151.410 318.780 C 150.417 320.701,150.605 321.074,152.684 321.308 C 155.726 321.651,157.017 324.256,155.235 326.456 C 154.007 327.972,141.158 327.925,139.986 326.400 C 138.382 324.312,139.386 321.772,141.979 321.357 L 143.514 321.112 148.202 309.456 C 150.781 303.045,152.979 297.575,153.088 297.300 C 153.233 296.934,152.648 296.800,150.902 296.800 C 146.746 296.800,145.200 295.839,145.200 293.255 C 145.200 290.713,146.291 290.400,155.154 290.400 L 163.000 290.400 168.695 304.500 M250.800 297.013 C 250.800 304.498,250.410 306.181,248.570 306.643 C 245.584 307.393,244.414 305.668,244.406 300.500 L 244.400 296.800 241.000 296.800 L 237.600 296.800 237.600 309.000 L 237.600 321.200 240.500 321.206 C 244.950 321.215,246.769 322.779,245.602 325.594 C 244.865 327.376,243.556 327.600,233.910 327.600 L 225.138 327.600 223.969 326.431 C 221.210 323.672,223.292 321.200,228.374 321.200 L 231.200 321.200 231.200 309.000 L 231.200 296.800 227.800 296.800 L 224.400 296.800 224.400 300.746 C 224.400 305.404,223.719 306.810,221.471 306.787 C 218.542 306.758,218.023 305.216,218.010 296.500 L 218.000 290.400 234.400 290.400 L 250.800 290.400 250.800 297.013 M277.336 294.900 C 289.148 324.111,287.725 321.054,289.654 321.362 C 292.671 321.845,293.167 325.657,290.400 327.097 C 288.695 327.985,277.521 327.617,276.441 326.638 C 274.259 324.661,276.049 321.200,279.254 321.200 C 280.991 321.200,281.043 321.080,280.195 319.049 L 279.589 317.600 271.985 317.600 C 264.465 317.600,264.376 317.610,264.044 318.500 C 263.040 321.184,263.043 321.200,264.554 321.200 C 268.712 321.200,270.277 325.323,266.788 327.088 C 265.425 327.778,254.966 327.773,253.600 327.082 C 250.449 325.489,251.568 321.726,255.372 321.122 C 256.062 321.013,265.488 299.049,265.576 297.344 C 265.591 297.053,264.499 296.832,262.557 296.734 C 258.902 296.549,257.322 295.330,257.764 293.035 C 258.243 290.554,258.816 290.400,267.603 290.400 L 275.517 290.400 277.336 294.900 M118.400 302.600 L 118.400 308.400 122.127 308.400 C 129.166 308.400,132.600 306.368,132.600 302.204 C 132.600 298.085,130.303 296.806,122.900 296.802 L 118.400 296.800 118.400 302.600 M157.075 304.698 C 155.820 307.724,154.794 310.335,154.796 310.500 C 154.798 310.665,156.870 310.800,159.400 310.800 C 161.930 310.800,164.001 310.665,164.001 310.500 C 164.004 310.076,159.935 299.864,159.618 299.498 C 159.474 299.333,158.330 301.673,157.075 304.698 M269.546 304.921 L 267.292 310.600 271.899 310.713 C 274.434 310.775,276.575 310.758,276.658 310.675 C 276.834 310.500,272.498 299.939,272.080 299.521 C 271.926 299.367,270.786 301.797,269.546 304.921 " stroke="none" fill="#dbebf3" fill-rule="evenodd"></path><path id="path1" d="M171.869 115.153 C 166.905 120.319,167.121 123.023,172.800 126.818 C 174.230 127.774,175.646 128.799,175.948 129.097 C 176.783 129.923,176.195 130.146,175.091 129.423 C 173.824 128.593,173.297 128.846,171.600 131.101 C 167.335 136.767,167.851 138.630,174.899 143.018 C 176.696 144.136,177.264 144.800,176.424 144.800 C 176.217 144.800,175.936 144.620,175.800 144.400 C 175.120 143.299,173.684 144.066,171.869 146.500 C 168.142 151.497,168.543 153.470,174.000 156.992 C 177.544 159.280,178.861 160.879,175.968 159.384 C 174.491 158.620,174.478 158.628,172.190 161.834 C 168.798 166.588,169.228 168.402,174.641 172.170 C 178.057 174.548,178.671 175.341,176.353 174.381 C 175.146 173.881,175.032 173.913,174.117 175.027 C 172.375 177.146,170.915 179.383,170.609 180.400 C 170.443 180.950,169.964 181.776,169.544 182.236 C 168.419 183.468,168.000 185.376,168.000 189.274 C 168.000 191.187,167.820 192.864,167.600 193.000 C 167.362 193.147,167.200 192.679,167.200 191.847 C 167.200 190.121,167.162 190.098,163.509 189.590 C 158.036 188.829,155.604 190.602,155.596 195.359 C 155.588 199.524,155.239 200.867,154.246 200.548 C 152.453 199.972,147.760 200.292,145.896 201.116 C 142.429 202.650,142.602 204.246,146.803 209.468 C 150.116 213.586,150.812 215.121,151.456 219.730 C 151.962 223.351,153.843 229.185,154.825 230.180 C 155.031 230.389,155.200 231.154,155.200 231.880 C 155.200 233.551,155.201 233.551,159.463 231.404 C 167.354 227.431,167.585 226.483,164.976 208.803 C 163.706 200.197,163.746 193.751,165.071 193.310 C 165.367 193.211,165.314 193.747,164.916 194.880 C 164.111 197.172,164.420 201.988,165.988 211.600 C 166.653 215.670,167.197 220.294,167.198 221.876 C 167.200 225.297,167.459 225.544,169.694 224.262 C 172.811 222.473,173.351 222.465,172.619 224.216 C 171.177 227.667,172.165 229.443,177.300 232.630 C 179.945 234.272,179.995 234.420,178.466 236.057 C 175.811 238.898,174.093 244.650,175.483 246.042 C 176.109 246.669,179.697 246.831,182.222 246.346 C 186.834 245.461,189.602 245.758,193.515 247.561 C 197.103 249.214,201.384 250.380,203.914 250.393 C 204.637 250.397,205.677 250.694,206.227 251.054 C 207.418 251.835,207.621 251.690,207.788 249.936 C 207.858 249.201,208.045 247.424,208.204 245.987 C 209.002 238.766,207.741 237.410,195.200 232.003 C 183.939 227.147,177.389 223.307,178.475 222.197 C 178.627 222.043,179.311 222.554,179.996 223.334 C 181.489 225.034,187.354 228.099,195.800 231.592 C 199.100 232.956,202.849 234.708,204.132 235.485 C 206.934 237.181,206.975 237.147,207.503 232.600 C 208.572 223.408,207.798 222.576,191.820 215.726 C 182.674 211.804,178.000 208.945,178.000 207.272 C 178.000 207.024,178.766 207.587,179.702 208.523 C 181.588 210.409,185.593 212.481,195.000 216.436 C 198.300 217.824,202.020 219.554,203.267 220.280 C 206.529 222.179,206.638 222.127,206.941 218.540 C 207.835 207.963,207.302 207.347,191.580 200.798 C 183.124 197.275,176.329 193.138,177.339 192.127 C 177.453 192.013,178.182 192.556,178.959 193.333 C 180.926 195.299,184.245 197.067,192.592 200.592 C 196.548 202.263,201.122 204.352,202.757 205.233 C 205.919 206.939,206.422 206.878,206.353 204.800 C 206.334 204.250,206.452 202.431,206.613 200.758 C 207.312 193.536,205.959 192.108,193.400 186.810 C 185.544 183.495,179.855 180.504,178.226 178.831 C 176.098 176.646,176.610 176.373,178.841 178.502 C 180.915 180.481,185.911 183.090,193.857 186.344 C 204.517 190.709,206.909 192.530,207.427 196.674 C 207.742 199.200,207.437 199.139,210.838 197.352 C 217.006 194.111,217.382 192.396,215.173 177.600 C 213.829 168.596,213.522 162.364,214.349 160.866 C 215.064 159.571,215.298 159.998,214.745 161.587 C 214.085 163.480,214.545 169.977,215.978 179.000 C 216.642 183.180,217.189 187.725,217.193 189.100 C 217.202 192.126,217.232 192.133,221.476 190.038 C 229.709 185.972,229.995 184.895,227.390 167.800 C 226.297 160.621,226.040 154.533,226.752 152.700 C 227.451 150.904,227.959 151.451,227.310 153.300 C 226.525 155.536,226.824 160.204,228.393 170.200 C 229.048 174.380,229.589 178.985,229.593 180.433 C 229.602 183.878,229.455 183.840,234.042 181.560 C 242.393 177.408,242.440 177.238,239.965 160.200 C 238.438 149.695,238.483 143.200,240.082 143.200 C 240.310 143.200,240.360 143.505,240.197 143.900 C 238.949 146.922,239.033 149.763,240.687 160.400 C 241.252 164.030,241.823 168.800,241.957 171.000 C 242.197 174.955,243.096 176.246,244.383 174.482 C 244.502 174.318,245.950 173.523,247.600 172.716 C 249.250 171.909,251.320 170.508,252.200 169.602 L 253.800 167.956 253.760 163.878 C 253.737 161.502,253.246 156.879,252.584 152.800 C 251.148 143.956,250.965 136.442,252.157 135.315 C 252.886 134.626,252.902 134.629,252.583 135.400 C 251.751 137.414,251.931 143.919,253.016 151.051 C 253.614 154.983,254.215 159.359,254.352 160.776 C 254.649 163.857,255.317 164.203,260.400 163.911 C 267.721 163.491,268.540 160.761,263.192 154.600 C 260.402 151.387,259.315 148.934,258.845 144.798 C 258.321 140.186,257.464 137.781,254.515 132.644 C 253.769 131.345,248.281 130.725,245.648 131.643 C 243.728 132.312,243.128 133.888,242.891 138.881 C 242.701 142.908,242.000 145.088,242.000 141.654 C 242.000 140.119,241.988 140.107,240.144 139.854 C 232.085 138.750,230.407 140.101,230.402 147.700 C 230.401 149.765,230.236 151.200,230.000 151.200 C 229.780 151.200,229.600 150.666,229.600 150.014 C 229.600 148.388,228.632 147.970,224.653 147.877 C 219.184 147.750,218.005 149.101,217.994 155.508 C 217.991 157.429,217.813 159.270,217.600 159.600 C 217.302 160.061,217.209 159.923,217.200 159.000 C 217.182 157.258,216.710 156.751,214.749 156.373 C 207.128 154.901,204.109 158.148,206.250 165.514 C 207.082 168.375,206.657 174.400,205.623 174.400 C 205.462 174.400,205.414 172.541,205.515 170.269 C 205.840 162.951,205.000 162.085,192.400 156.753 C 182.257 152.460,174.644 148.022,175.668 146.998 C 175.778 146.888,176.582 147.478,177.455 148.308 C 179.476 150.230,182.726 151.924,192.200 155.993 C 196.380 157.788,200.658 159.784,201.706 160.428 C 204.608 162.212,204.616 162.202,205.049 156.162 C 205.627 148.086,204.760 147.163,191.200 141.405 C 181.022 137.084,175.200 133.628,175.200 131.908 C 175.200 131.653,175.785 132.078,176.500 132.853 C 178.299 134.803,182.063 136.816,191.400 140.823 C 195.800 142.711,200.299 144.820,201.399 145.509 C 203.809 147.020,203.757 147.069,204.385 142.683 C 205.632 133.962,204.589 132.546,193.200 127.507 C 189.790 125.998,185.560 124.124,183.800 123.343 C 178.845 121.143,174.116 117.751,174.905 116.962 C 175.040 116.827,175.711 117.354,176.396 118.134 C 177.893 119.839,183.929 122.999,191.800 126.197 C 194.880 127.449,198.012 128.826,198.759 129.258 L 200.118 130.043 201.430 128.771 C 203.084 127.168,205.033 123.508,205.386 121.342 C 205.915 118.097,203.914 117.245,197.677 118.062 C 192.327 118.762,190.349 118.486,186.000 116.431 C 182.759 114.899,180.512 114.371,175.130 113.877 C 173.404 113.718,173.152 113.817,171.869 115.153 M182.258 127.355 C 184.646 128.541,188.850 130.264,191.600 131.184 C 197.149 133.041,198.245 133.719,197.086 134.579 C 194.977 136.144,176.400 128.415,176.400 125.973 C 176.400 124.748,177.555 125.021,182.258 127.355 M184.000 142.956 C 186.090 143.976,190.050 145.574,192.800 146.506 C 197.919 148.240,199.488 149.561,196.870 149.932 C 192.941 150.488,175.745 142.353,177.184 140.619 C 177.758 139.927,177.897 139.975,184.000 142.956 M246.786 141.574 C 247.014 141.999,247.201 143.214,247.202 144.274 C 247.204 146.789,248.166 152.713,249.450 158.113 C 250.496 162.510,250.379 163.874,249.002 163.345 C 247.216 162.660,244.005 145.622,244.951 141.851 C 245.261 140.616,246.198 140.474,246.786 141.574 M234.386 149.974 C 234.614 150.399,234.800 151.591,234.800 152.622 C 234.800 155.283,235.876 162.189,236.961 166.493 C 237.956 170.440,237.916 171.600,236.786 171.600 C 234.877 171.600,231.264 153.138,232.529 149.842 C 232.866 148.962,233.883 149.035,234.386 149.974 M183.726 157.611 C 186.498 158.937,190.706 160.658,193.077 161.435 C 197.791 162.979,199.086 163.774,198.343 164.668 C 196.678 166.675,176.052 157.781,177.382 155.630 C 177.830 154.904,178.511 155.117,183.726 157.611 M221.953 158.500 C 222.136 158.995,222.396 161.020,222.530 163.000 C 222.665 164.980,223.243 168.760,223.814 171.400 C 225.371 178.597,225.486 180.000,224.515 180.000 C 222.403 180.000,218.565 160.646,220.164 158.058 C 220.632 157.301,221.598 157.540,221.953 158.500 M182.646 166.467 C 184.601 167.494,188.900 169.450,192.200 170.816 C 204.563 175.931,206.322 177.230,206.977 181.729 C 207.426 184.811,206.619 190.352,205.836 189.569 C 205.721 189.455,205.818 188.139,206.051 186.646 C 207.280 178.750,205.655 177.125,189.800 170.400 C 181.456 166.860,176.400 163.727,176.400 162.097 C 176.400 161.694,176.899 162.039,177.746 163.029 C 178.568 163.989,180.476 165.328,182.646 166.467 M209.705 169.004 C 210.273 174.198,211.231 179.967,212.038 183.050 C 213.003 186.734,212.935 188.200,211.800 188.200 C 209.951 188.200,206.262 169.777,207.546 166.958 C 208.434 165.010,209.366 165.893,209.705 169.004 M183.268 172.234 C 185.276 173.243,189.457 174.961,192.560 176.053 C 198.230 178.049,199.524 178.752,199.024 179.562 C 197.780 181.574,178.000 173.702,178.000 171.195 C 178.000 169.962,179.224 170.203,183.268 172.234 M184.534 187.573 C 187.210 188.878,191.470 190.618,194.000 191.441 C 199.610 193.263,200.934 194.202,198.963 194.959 C 196.022 196.088,177.738 187.902,178.539 185.815 C 178.893 184.893,179.259 185.001,184.534 187.573 M171.867 191.430 C 172.000 191.777,171.729 192.902,171.264 193.930 C 170.800 194.959,170.353 196.340,170.270 197.000 C 170.187 197.660,170.093 196.820,170.060 195.133 C 169.983 191.198,170.988 189.139,171.867 191.430 M173.608 203.499 C 174.033 205.487,172.933 208.667,172.107 207.841 C 171.787 207.520,170.433 200.740,170.422 199.400 L 170.412 198.200 171.786 199.800 C 172.684 200.846,173.315 202.127,173.608 203.499 M159.411 199.617 C 159.553 199.847,159.845 201.962,160.061 204.317 C 160.276 206.673,160.906 210.670,161.459 213.200 C 162.955 220.037,163.083 221.600,162.147 221.600 C 159.970 221.600,156.119 202.321,157.764 199.658 C 158.118 199.086,159.068 199.062,159.411 199.617 M184.963 202.577 C 187.403 203.775,191.650 205.510,194.400 206.434 C 199.122 208.021,200.648 208.875,200.164 209.659 C 198.864 211.762,178.800 203.597,178.800 200.964 C 178.800 199.936,180.474 200.375,184.963 202.577 M185.458 217.564 C 189.512 219.555,196.031 222.110,198.259 222.580 C 200.840 223.124,201.461 225.174,199.051 225.194 C 196.067 225.218,180.300 218.376,179.815 216.846 C 179.140 214.722,179.859 214.813,185.458 217.564 M185.887 232.552 C 188.259 233.736,192.450 235.476,195.200 236.419 C 201.352 238.529,202.663 239.482,200.402 240.199 C 197.584 241.094,179.432 232.856,180.143 231.005 C 180.510 230.049,181.292 230.259,185.887 232.552 " stroke="none" fill="#efc257" fill-rule="evenodd"></path><path id="path2" d="M107.157 139.320 C 105.923 139.839,103.493 141.080,101.757 142.076 C 100.020 143.073,94.460 146.183,89.400 148.988 C 80.404 153.975,74.701 157.150,64.200 163.021 C 57.978 166.499,54.370 168.501,40.300 176.281 C 34.415 179.536,29.605 182.289,29.611 182.399 C 29.616 182.510,34.508 185.300,40.480 188.600 C 51.630 194.760,58.697 198.693,67.800 203.802 C 105.316 224.860,108.250 226.400,110.853 226.400 C 115.105 226.400,118.057 223.490,118.306 219.053 C 118.579 214.185,118.257 213.907,101.800 204.793 C 94.980 201.017,87.690 196.971,85.600 195.802 C 77.042 191.017,70.369 187.317,66.414 185.162 C 64.111 183.908,62.170 182.711,62.101 182.502 C 61.993 182.180,66.533 179.518,76.800 173.883 C 79.715 172.283,88.061 167.647,92.800 164.995 C 94.890 163.826,100.560 160.679,105.400 158.002 C 117.659 151.222,118.396 150.566,118.399 146.426 C 118.403 140.220,113.051 136.837,107.157 139.320 M281.783 139.152 C 277.145 141.259,275.783 147.187,279.095 150.852 C 280.619 152.540,282.048 153.429,292.200 159.006 C 295.720 160.940,300.940 163.822,303.800 165.411 C 306.660 167.001,311.430 169.648,314.400 171.295 C 317.370 172.942,321.690 175.340,324.000 176.624 C 326.310 177.908,329.505 179.654,331.100 180.503 C 332.695 181.353,334.000 182.180,334.000 182.342 C 334.000 182.503,327.205 186.396,318.900 190.992 C 276.848 214.265,278.461 213.276,277.616 216.317 C 275.747 223.046,282.018 228.440,288.467 225.650 C 289.420 225.238,293.980 222.782,298.600 220.194 C 303.220 217.605,308.530 214.646,310.400 213.618 C 318.282 209.287,361.226 185.367,363.737 183.910 L 366.473 182.322 354.937 175.918 C 348.591 172.395,341.510 168.473,339.200 167.200 C 336.890 165.928,331.220 162.773,326.600 160.189 C 321.980 157.605,316.490 154.550,314.400 153.400 C 312.310 152.250,306.820 149.191,302.200 146.602 C 287.019 138.095,285.406 137.506,281.783 139.152 M194.000 289.844 C 187.498 291.048,182.637 297.302,183.984 302.731 C 185.232 307.758,188.779 310.192,197.200 311.800 C 203.951 313.089,205.994 314.315,205.999 317.081 C 206.009 323.395,191.082 324.162,188.142 317.998 C 185.239 311.910,181.121 316.456,182.565 324.155 C 183.037 326.672,185.195 327.652,186.889 326.120 C 187.541 325.529,187.808 325.508,188.920 325.957 C 200.323 330.563,211.336 326.279,211.365 317.225 C 211.386 310.946,208.285 308.388,198.027 306.222 C 189.298 304.379,186.789 301.369,190.801 297.553 C 194.965 293.592,202.686 294.863,204.521 299.812 C 205.791 303.234,207.952 304.346,209.377 302.311 C 210.039 301.366,210.298 293.064,209.694 292.160 C 208.945 291.038,207.623 290.752,206.235 291.410 C 204.929 292.030,204.802 292.014,202.784 290.992 C 200.697 289.934,196.485 289.384,194.000 289.844 M108.254 291.629 C 106.318 293.152,107.435 296.000,109.967 296.000 C 112.538 296.000,112.400 295.261,112.400 309.043 L 112.400 321.600 110.616 321.600 C 107.656 321.600,106.144 324.144,108.000 326.000 C 108.752 326.752,109.333 326.800,117.724 326.800 C 127.604 326.800,128.133 326.681,128.133 324.462 C 128.133 322.049,127.223 321.600,122.338 321.600 L 118.000 321.600 118.000 318.057 L 118.000 314.515 123.159 314.306 C 132.742 313.917,138.154 309.981,138.693 303.008 C 139.149 297.119,135.120 292.405,128.627 291.230 C 123.964 290.386,109.474 290.670,108.254 291.629 M146.654 291.629 C 143.937 293.766,145.801 296.000,150.302 296.000 C 154.145 296.000,154.134 295.880,151.011 303.648 C 149.563 307.251,147.366 312.765,146.129 315.900 L 143.881 321.600 142.540 321.600 C 140.935 321.600,139.600 322.780,139.600 324.200 C 139.600 326.495,140.556 326.800,147.738 326.800 C 154.931 326.800,155.600 326.585,155.600 324.269 C 155.600 322.550,154.318 321.600,152.000 321.600 C 149.713 321.600,149.780 321.726,150.694 319.154 L 151.388 317.200 159.285 317.200 C 168.112 317.200,168.013 317.167,168.644 320.321 L 168.900 321.600 166.912 321.600 C 163.607 321.600,162.058 324.823,164.560 326.494 C 165.697 327.253,177.571 326.829,178.400 326.000 C 180.030 324.370,178.755 321.600,176.375 321.600 C 175.461 321.600,175.089 321.359,174.791 320.576 C 174.577 320.013,173.933 318.528,173.359 317.276 C 172.786 316.024,171.175 312.120,169.780 308.600 C 168.385 305.080,166.212 299.635,164.951 296.500 L 162.658 290.800 155.183 290.800 C 148.226 290.800,147.635 290.857,146.654 291.629 M218.474 297.836 C 218.596 304.676,218.626 304.894,219.544 305.636 C 222.293 307.859,224.000 305.836,224.000 300.354 C 224.000 295.766,223.882 295.876,228.608 296.080 L 231.400 296.200 231.506 308.900 L 231.611 321.600 228.306 321.606 C 224.751 321.613,224.365 321.735,223.660 323.074 C 221.929 326.362,223.180 326.800,234.311 326.800 C 244.891 326.800,245.600 326.648,245.600 324.377 C 245.600 322.235,244.456 321.600,240.594 321.600 L 237.189 321.600 237.294 308.900 L 237.400 296.200 241.000 296.200 L 244.600 296.200 244.713 300.481 C 244.834 305.047,245.507 306.400,247.654 306.400 C 249.704 306.400,250.000 305.314,250.000 297.800 L 250.000 290.800 234.174 290.800 L 218.348 290.800 218.474 297.836 M259.694 291.215 C 258.481 291.702,257.856 293.379,258.460 294.526 C 259.153 295.842,259.558 295.987,262.600 296.000 C 266.569 296.017,266.697 296.165,265.403 299.247 C 264.813 300.651,263.345 304.320,262.140 307.400 C 257.254 319.891,256.412 321.600,255.143 321.600 C 252.826 321.600,251.478 324.641,253.131 326.138 C 254.281 327.179,266.387 327.119,267.338 326.069 C 269.211 323.999,267.586 321.600,264.311 321.600 C 262.097 321.600,262.152 321.725,263.249 319.174 L 264.099 317.200 272.070 317.200 L 280.041 317.200 280.572 318.500 C 281.854 321.634,281.864 321.600,279.671 321.600 C 276.367 321.600,274.645 324.188,276.629 326.171 C 277.453 326.996,289.844 327.108,290.902 326.300 C 292.848 324.813,291.588 321.750,288.935 321.524 L 287.492 321.400 285.771 316.800 C 284.824 314.270,283.844 311.865,283.593 311.455 C 283.342 311.045,281.975 307.715,280.554 304.055 C 279.134 300.395,277.310 295.915,276.503 294.100 L 275.034 290.800 267.817 290.825 C 263.848 290.839,260.192 291.014,259.694 291.215 M127.313 296.589 C 131.833 297.547,133.506 299.410,133.098 303.032 C 132.669 306.830,129.691 308.461,122.700 308.722 L 118.000 308.899 118.000 302.716 C 118.000 299.316,118.120 296.413,118.267 296.267 C 118.741 295.792,124.524 295.998,127.313 296.589 M160.832 301.100 C 162.262 304.214,164.800 310.695,164.800 311.234 C 164.800 311.755,154.512 311.704,154.189 311.182 C 154.047 310.953,154.096 310.548,154.298 310.282 C 154.499 310.017,155.640 307.236,156.832 304.103 C 159.347 297.494,159.220 297.590,160.832 301.100 M272.790 299.300 C 274.049 302.335,276.783 309.592,277.013 310.510 L 277.287 311.600 272.043 311.600 C 267.850 311.600,266.800 311.489,266.800 311.048 C 266.800 310.273,268.576 305.641,270.218 302.134 C 270.978 300.511,271.600 299.006,271.600 298.791 C 271.600 298.052,272.418 298.401,272.790 299.300 " stroke="none" fill="#111a29" fill-rule="evenodd"></path><path id="path3" d="M108.200 138.602 C 107.540 138.938,107.360 139.099,107.800 138.962 C 109.546 138.416,112.011 138.326,113.263 138.762 C 114.284 139.118,114.474 139.114,114.105 138.745 C 113.352 137.992,109.579 137.901,108.200 138.602 M282.100 138.596 C 281.385 138.907,280.800 139.266,280.800 139.395 C 280.800 139.523,281.192 139.418,281.672 139.162 C 282.151 138.905,283.456 138.561,284.572 138.397 C 286.523 138.111,286.539 138.098,285.000 138.066 C 284.120 138.047,282.815 138.286,282.100 138.596 M287.200 138.688 C 287.530 138.812,288.835 139.430,290.100 140.062 C 291.365 140.694,292.400 141.122,292.400 141.012 C 292.400 140.698,287.682 138.396,287.111 138.432 C 286.781 138.452,286.812 138.543,287.200 138.688 M117.816 142.783 C 117.999 143.103,118.282 144.543,118.444 145.983 L 118.739 148.600 118.651 145.901 C 118.597 144.253,118.352 143.007,118.022 142.701 C 117.584 142.294,117.545 142.309,117.816 142.783 M98.700 143.429 C 97.205 144.240,97.296 144.578,98.800 143.800 C 99.460 143.459,100.000 143.094,100.000 142.990 C 100.000 142.732,99.957 142.747,98.700 143.429 M298.000 144.179 C 298.000 144.289,298.540 144.659,299.200 145.000 C 299.860 145.341,300.400 145.531,300.400 145.421 C 300.400 145.311,299.860 144.941,299.200 144.600 C 298.540 144.259,298.000 144.069,298.000 144.179 M95.500 145.227 C 94.675 145.663,94.000 146.108,94.000 146.218 C 94.000 146.327,94.720 146.049,95.600 145.600 C 96.480 145.151,97.200 144.697,97.200 144.592 C 97.200 144.330,97.197 144.331,95.500 145.227 M87.900 149.429 C 86.405 150.240,86.496 150.578,88.000 149.800 C 88.660 149.459,89.200 149.094,89.200 148.990 C 89.200 148.732,89.157 148.747,87.900 149.429 M279.200 151.400 C 279.946 152.170,280.647 152.800,280.757 152.800 C 280.867 152.800,280.346 152.170,279.600 151.400 C 278.854 150.630,278.153 150.000,278.043 150.000 C 277.933 150.000,278.454 150.630,279.200 151.400 M308.800 150.179 C 308.800 150.289,309.340 150.659,310.000 151.000 C 310.660 151.341,311.200 151.531,311.200 151.421 C 311.200 151.311,310.660 150.941,310.000 150.600 C 309.340 150.259,308.800 150.069,308.800 150.179 M84.700 151.227 C 83.875 151.663,83.200 152.108,83.200 152.218 C 83.200 152.327,83.920 152.049,84.800 151.600 C 85.680 151.151,86.400 150.697,86.400 150.592 C 86.400 150.330,86.397 150.331,84.700 151.227 M311.600 151.779 C 311.600 151.889,312.140 152.259,312.800 152.600 C 313.460 152.941,314.000 153.131,314.000 153.021 C 314.000 152.911,313.460 152.541,312.800 152.200 C 312.140 151.859,311.600 151.669,311.600 151.779 M286.800 156.179 C 286.800 156.289,287.340 156.659,288.000 157.000 C 288.660 157.341,289.200 157.531,289.200 157.421 C 289.200 157.311,288.660 156.941,288.000 156.600 C 287.340 156.259,286.800 156.069,286.800 156.179 M319.600 156.179 C 319.600 156.289,320.140 156.659,320.800 157.000 C 321.460 157.341,322.000 157.531,322.000 157.421 C 322.000 157.311,321.460 156.941,320.800 156.600 C 320.140 156.259,319.600 156.069,319.600 156.179 M73.900 157.227 C 73.075 157.663,72.400 158.108,72.400 158.218 C 72.400 158.327,73.120 158.049,74.000 157.600 C 74.880 157.151,75.600 156.697,75.600 156.592 C 75.600 156.330,75.597 156.331,73.900 157.227 M106.300 157.429 C 104.805 158.240,104.896 158.578,106.400 157.800 C 107.060 157.459,107.600 157.094,107.600 156.990 C 107.600 156.732,107.557 156.747,106.300 157.429 M289.600 157.784 C 289.600 157.894,290.320 158.351,291.200 158.800 C 292.080 159.249,292.800 159.526,292.800 159.416 C 292.800 159.306,292.080 158.849,291.200 158.400 C 290.320 157.951,289.600 157.674,289.600 157.784 M322.400 157.779 C 322.400 157.889,322.940 158.259,323.600 158.600 C 324.260 158.941,324.800 159.131,324.800 159.021 C 324.800 158.911,324.260 158.541,323.600 158.200 C 322.940 157.859,322.400 157.669,322.400 157.779 M330.400 162.179 C 330.400 162.289,330.940 162.659,331.600 163.000 C 332.260 163.341,332.800 163.531,332.800 163.421 C 332.800 163.311,332.260 162.941,331.600 162.600 C 330.940 162.259,330.400 162.069,330.400 162.179 M298.400 162.579 C 298.400 162.689,298.940 163.059,299.600 163.400 C 300.260 163.741,300.800 163.931,300.800 163.821 C 300.800 163.711,300.260 163.341,299.600 163.000 C 298.940 162.659,298.400 162.469,298.400 162.579 M95.100 163.627 C 94.275 164.063,93.600 164.508,93.600 164.618 C 93.600 164.727,94.320 164.449,95.200 164.000 C 96.080 163.551,96.800 163.097,96.800 162.992 C 96.800 162.730,96.797 162.731,95.100 163.627 M333.200 163.779 C 333.200 163.889,333.740 164.259,334.400 164.600 C 335.060 164.941,335.600 165.131,335.600 165.021 C 335.600 164.911,335.060 164.541,334.400 164.200 C 333.740 163.859,333.200 163.669,333.200 163.779 M60.300 164.827 C 59.475 165.263,58.800 165.708,58.800 165.818 C 58.800 165.927,59.520 165.649,60.400 165.200 C 61.280 164.751,62.000 164.297,62.000 164.192 C 62.000 163.930,61.997 163.931,60.300 164.827 M301.200 164.179 C 301.200 164.289,301.740 164.659,302.400 165.000 C 303.060 165.341,303.600 165.531,303.600 165.421 C 303.600 165.311,303.060 164.941,302.400 164.600 C 301.740 164.259,301.200 164.069,301.200 164.179 M83.900 169.829 C 82.405 170.640,82.496 170.978,84.000 170.200 C 84.660 169.859,85.200 169.494,85.200 169.390 C 85.200 169.132,85.157 169.147,83.900 169.829 M344.000 169.779 C 344.000 169.889,344.540 170.259,345.200 170.600 C 345.860 170.941,346.400 171.131,346.400 171.021 C 346.400 170.911,345.860 170.541,345.200 170.200 C 344.540 169.859,344.000 169.669,344.000 169.779 M49.500 170.827 C 48.675 171.263,48.000 171.708,48.000 171.818 C 48.000 171.927,48.720 171.649,49.600 171.200 C 50.480 170.751,51.200 170.297,51.200 170.192 C 51.200 169.930,51.197 169.931,49.500 170.827 M312.000 170.184 C 312.000 170.294,312.720 170.751,313.600 171.200 C 314.480 171.649,315.200 171.926,315.200 171.816 C 315.200 171.706,314.480 171.249,313.600 170.800 C 312.720 170.351,312.000 170.074,312.000 170.184 M81.100 171.429 C 79.605 172.240,79.696 172.578,81.200 171.800 C 81.860 171.459,82.400 171.094,82.400 170.990 C 82.400 170.732,82.357 170.747,81.100 171.429 M41.900 175.029 C 40.405 175.840,40.496 176.178,42.000 175.400 C 42.660 175.059,43.200 174.694,43.200 174.590 C 43.200 174.332,43.157 174.347,41.900 175.029 M72.300 176.229 C 70.805 177.040,70.896 177.378,72.400 176.600 C 73.060 176.259,73.600 175.894,73.600 175.790 C 73.600 175.532,73.557 175.547,72.300 176.229 M355.600 176.179 C 355.600 176.289,356.140 176.659,356.800 177.000 C 357.460 177.341,358.000 177.531,358.000 177.421 C 358.000 177.311,357.460 176.941,356.800 176.600 C 356.140 176.259,355.600 176.069,355.600 176.179 M37.900 177.227 C 37.075 177.663,36.400 178.108,36.400 178.218 C 36.400 178.327,37.120 178.049,38.000 177.600 C 38.880 177.151,39.600 176.697,39.600 176.592 C 39.600 176.330,39.597 176.331,37.900 177.227 M323.600 176.584 C 323.600 176.694,324.320 177.151,325.200 177.600 C 326.080 178.049,326.800 178.326,326.800 178.216 C 326.800 178.106,326.080 177.649,325.200 177.200 C 324.320 176.751,323.600 176.474,323.600 176.584 M69.500 177.829 C 68.005 178.640,68.096 178.978,69.600 178.200 C 70.260 177.859,70.800 177.494,70.800 177.390 C 70.800 177.132,70.757 177.147,69.500 177.829 M358.400 177.779 C 358.400 177.889,358.940 178.259,359.600 178.600 C 360.260 178.941,360.800 179.131,360.800 179.021 C 360.800 178.911,360.260 178.541,359.600 178.200 C 358.940 177.859,358.400 177.669,358.400 177.779 M62.267 181.867 C 61.747 182.386,62.016 182.787,63.300 183.409 C 64.448 183.965,64.509 183.966,63.824 183.419 C 63.396 183.079,62.882 182.800,62.681 182.800 C 62.479 182.800,62.418 182.530,62.545 182.200 C 62.792 181.556,62.694 181.439,62.267 181.867 M30.000 182.984 C 30.000 183.094,30.720 183.551,31.600 184.000 C 32.480 184.449,33.200 184.726,33.200 184.616 C 33.200 184.506,32.480 184.049,31.600 183.600 C 30.720 183.151,30.000 182.874,30.000 182.984 M331.500 183.627 C 330.675 184.063,330.000 184.508,330.000 184.618 C 330.000 184.727,330.720 184.449,331.600 184.000 C 332.480 183.551,333.200 183.097,333.200 182.992 C 333.200 182.730,333.197 182.731,331.500 183.627 M363.100 184.229 C 361.605 185.040,361.696 185.378,363.200 184.600 C 363.860 184.259,364.400 183.894,364.400 183.790 C 364.400 183.532,364.357 183.547,363.100 184.229 M64.800 184.179 C 64.800 184.289,65.340 184.659,66.000 185.000 C 66.660 185.341,67.200 185.531,67.200 185.421 C 67.200 185.311,66.660 184.941,66.000 184.600 C 65.340 184.259,64.800 184.069,64.800 184.179 M33.600 184.979 C 33.600 185.089,34.140 185.459,34.800 185.800 C 35.460 186.141,36.000 186.331,36.000 186.221 C 36.000 186.111,35.460 185.741,34.800 185.400 C 34.140 185.059,33.600 184.869,33.600 184.979 M72.800 188.579 C 72.800 188.689,73.340 189.059,74.000 189.400 C 74.660 189.741,75.200 189.931,75.200 189.821 C 75.200 189.711,74.660 189.341,74.000 189.000 C 73.340 188.659,72.800 188.469,72.800 188.579 M40.800 188.984 C 40.800 189.094,41.520 189.551,42.400 190.000 C 43.280 190.449,44.000 190.726,44.000 190.616 C 44.000 190.506,43.280 190.049,42.400 189.600 C 41.520 189.151,40.800 188.874,40.800 188.984 M320.300 189.829 C 318.805 190.640,318.896 190.978,320.400 190.200 C 321.060 189.859,321.600 189.494,321.600 189.390 C 321.600 189.132,321.557 189.147,320.300 189.829 M352.300 190.229 C 350.805 191.040,350.896 191.378,352.400 190.600 C 353.060 190.259,353.600 189.894,353.600 189.790 C 353.600 189.532,353.557 189.547,352.300 190.229 M75.600 190.179 C 75.600 190.289,76.140 190.659,76.800 191.000 C 77.460 191.341,78.000 191.531,78.000 191.421 C 78.000 191.311,77.460 190.941,76.800 190.600 C 76.140 190.259,75.600 190.069,75.600 190.179 M44.400 190.979 C 44.400 191.089,44.940 191.459,45.600 191.800 C 46.260 192.141,46.800 192.331,46.800 192.221 C 46.800 192.111,46.260 191.741,45.600 191.400 C 44.940 191.059,44.400 190.869,44.400 190.979 M52.400 195.379 C 52.400 195.489,52.940 195.859,53.600 196.200 C 54.260 196.541,54.800 196.731,54.800 196.621 C 54.800 196.511,54.260 196.141,53.600 195.800 C 52.940 195.459,52.400 195.269,52.400 195.379 M309.500 195.829 C 308.005 196.640,308.096 196.978,309.600 196.200 C 310.260 195.859,310.800 195.494,310.800 195.390 C 310.800 195.132,310.757 195.147,309.500 195.829 M341.500 196.229 C 340.005 197.040,340.096 197.378,341.600 196.600 C 342.260 196.259,342.800 195.894,342.800 195.790 C 342.800 195.532,342.757 195.547,341.500 196.229 M86.400 196.184 C 86.400 196.294,87.120 196.751,88.000 197.200 C 88.880 197.649,89.600 197.926,89.600 197.816 C 89.600 197.706,88.880 197.249,88.000 196.800 C 87.120 196.351,86.400 196.074,86.400 196.184 M55.200 196.979 C 55.200 197.089,55.740 197.459,56.400 197.800 C 57.060 198.141,57.600 198.331,57.600 198.221 C 57.600 198.111,57.060 197.741,56.400 197.400 C 55.740 197.059,55.200 196.869,55.200 196.979 M306.700 197.429 C 305.205 198.240,305.296 198.578,306.800 197.800 C 307.460 197.459,308.000 197.094,308.000 196.990 C 308.000 196.732,307.957 196.747,306.700 197.429 M63.200 201.379 C 63.200 201.489,63.740 201.859,64.400 202.200 C 65.060 202.541,65.600 202.731,65.600 202.621 C 65.600 202.511,65.060 202.141,64.400 201.800 C 63.740 201.459,63.200 201.269,63.200 201.379 M297.119 202.723 C 295.644 203.551,294.294 204.388,294.119 204.582 C 293.747 204.994,299.215 202.062,299.780 201.546 C 300.471 200.916,299.830 201.199,297.119 202.723 M330.700 202.229 C 329.205 203.040,329.296 203.378,330.800 202.600 C 331.460 202.259,332.000 201.894,332.000 201.790 C 332.000 201.532,331.957 201.547,330.700 202.229 M98.000 202.579 C 98.000 202.689,98.540 203.059,99.200 203.400 C 99.860 203.741,100.400 203.931,100.400 203.821 C 100.400 203.711,99.860 203.341,99.200 203.000 C 98.540 202.659,98.000 202.469,98.000 202.579 M66.000 202.979 C 66.000 203.089,66.540 203.459,67.200 203.800 C 67.860 204.141,68.400 204.331,68.400 204.221 C 68.400 204.111,67.860 203.741,67.200 203.400 C 66.540 203.059,66.000 202.869,66.000 202.979 M327.900 203.829 C 326.405 204.640,326.496 204.978,328.000 204.200 C 328.660 203.859,329.200 203.494,329.200 203.390 C 329.200 203.132,329.157 203.147,327.900 203.829 M287.100 208.229 C 285.605 209.040,285.696 209.378,287.200 208.600 C 287.860 208.259,288.400 207.894,288.400 207.790 C 288.400 207.532,288.357 207.547,287.100 208.229 M319.900 208.229 C 318.405 209.040,318.496 209.378,320.000 208.600 C 320.660 208.259,321.200 207.894,321.200 207.790 C 321.200 207.532,321.157 207.547,319.900 208.229 M76.000 208.584 C 76.000 208.694,76.720 209.151,77.600 209.600 C 78.480 210.049,79.200 210.326,79.200 210.216 C 79.200 210.106,78.480 209.649,77.600 209.200 C 76.720 208.751,76.000 208.474,76.000 208.584 M108.800 208.584 C 108.800 208.694,109.520 209.151,110.400 209.600 C 111.280 210.049,112.000 210.326,112.000 210.216 C 112.000 210.106,111.280 209.649,110.400 209.200 C 109.520 208.751,108.800 208.474,108.800 208.584 M284.300 209.829 C 282.805 210.640,282.896 210.978,284.400 210.200 C 285.060 209.859,285.600 209.494,285.600 209.390 C 285.600 209.132,285.557 209.147,284.300 209.829 M317.100 209.829 C 315.605 210.640,315.696 210.978,317.200 210.200 C 317.860 209.859,318.400 209.494,318.400 209.390 C 318.400 209.132,318.357 209.147,317.100 209.829 M309.100 214.229 C 307.605 215.040,307.696 215.378,309.200 214.600 C 309.860 214.259,310.400 213.894,310.400 213.790 C 310.400 213.532,310.357 213.547,309.100 214.229 M86.800 214.584 C 86.800 214.694,87.520 215.151,88.400 215.600 C 89.280 216.049,90.000 216.326,90.000 216.216 C 90.000 216.106,89.280 215.649,88.400 215.200 C 87.520 214.751,86.800 214.474,86.800 214.584 M306.300 215.829 C 304.805 216.640,304.896 216.978,306.400 216.200 C 307.060 215.859,307.600 215.494,307.600 215.390 C 307.600 215.132,307.557 215.147,306.300 215.829 M118.307 218.108 C 118.418 220.009,118.267 220.955,117.671 222.096 C 117.242 222.918,117.069 223.481,117.286 223.347 C 118.468 222.616,119.319 217.437,118.475 216.108 C 118.304 215.838,118.228 216.738,118.307 218.108 M90.400 216.579 C 90.400 216.689,90.940 217.059,91.600 217.400 C 92.260 217.741,92.800 217.931,92.800 217.821 C 92.800 217.711,92.260 217.341,91.600 217.000 C 90.940 216.659,90.400 216.469,90.400 216.579 M98.400 220.979 C 98.400 221.089,98.940 221.459,99.600 221.800 C 100.260 222.141,100.800 222.331,100.800 222.221 C 100.800 222.111,100.260 221.741,99.600 221.400 C 98.940 221.059,98.400 220.869,98.400 220.979 M295.500 221.829 C 294.005 222.640,294.096 222.978,295.600 222.200 C 296.260 221.859,296.800 221.494,296.800 221.390 C 296.800 221.132,296.757 221.147,295.500 221.829 M278.400 223.325 C 278.400 223.394,278.985 223.979,279.700 224.625 L 281.000 225.800 279.825 224.500 C 278.730 223.288,278.400 223.016,278.400 223.325 M110.305 226.683 C 110.802 226.779,111.522 226.775,111.905 226.675 C 112.287 226.575,111.880 226.496,111.000 226.501 C 110.120 226.505,109.807 226.587,110.305 226.683 M284.305 226.683 C 284.802 226.779,285.522 226.775,285.905 226.675 C 286.287 226.575,285.880 226.496,285.000 226.501 C 284.120 226.505,283.807 226.587,284.305 226.683 M189.704 291.023 C 180.140 295.789,181.794 309.016,192.200 310.980 C 192.952 311.121,192.710 310.944,191.551 310.503 C 181.698 306.757,180.985 295.891,190.292 291.337 C 191.452 290.770,192.400 290.237,192.400 290.153 C 192.400 289.811,191.654 290.051,189.704 291.023 M202.939 291.046 C 204.800 292.015,204.931 292.029,206.234 291.411 C 207.623 290.752,208.945 291.038,209.694 292.160 C 210.320 293.097,210.036 301.368,209.342 302.411 L 208.684 303.400 209.642 302.490 C 210.503 301.672,210.614 301.181,210.735 297.661 C 210.950 291.443,209.678 289.586,206.028 290.791 C 204.759 291.210,204.335 291.187,203.283 290.643 C 202.599 290.289,201.806 290.008,201.520 290.019 C 201.234 290.029,201.872 290.491,202.939 291.046 M107.782 291.382 C 105.523 293.640,107.415 296.800,111.026 296.800 L 112.000 296.800 112.000 308.976 L 112.000 321.152 110.500 321.309 L 109.000 321.466 110.700 321.533 L 112.400 321.600 112.400 309.043 C 112.400 295.261,112.538 296.000,109.967 296.000 C 107.435 296.000,106.318 293.152,108.254 291.629 C 109.474 290.670,123.964 290.386,128.627 291.230 C 135.120 292.405,139.149 297.119,138.693 303.008 C 138.154 309.981,132.742 313.917,123.159 314.306 L 118.000 314.515 118.000 318.057 L 118.000 321.600 122.300 321.516 L 126.600 321.431 122.500 321.302 L 118.400 321.172 118.400 318.032 L 118.400 314.893 123.710 314.738 C 135.976 314.379,143.115 304.995,137.628 296.443 C 134.289 291.240,131.642 290.400,118.594 290.400 L 108.764 290.400 107.782 291.382 M146.254 291.229 C 143.150 293.671,145.761 296.800,150.902 296.800 C 152.648 296.800,153.233 296.934,153.088 297.300 C 145.213 317.237,143.475 321.160,142.448 321.319 C 141.491 321.466,141.507 321.485,142.640 321.540 C 143.875 321.600,143.891 321.574,146.129 315.900 C 147.366 312.765,149.563 307.251,151.011 303.648 C 154.134 295.880,154.145 296.000,150.302 296.000 C 146.850 296.000,145.600 295.363,145.600 293.606 C 145.600 291.144,146.773 290.800,155.183 290.800 L 162.658 290.800 164.951 296.500 C 166.212 299.635,168.385 305.080,169.780 308.600 C 172.128 314.526,175.131 321.246,174.606 319.400 C 174.480 318.960,171.818 312.255,168.689 304.500 L 163.000 290.400 155.154 290.400 C 147.822 290.400,147.239 290.454,146.254 291.229 M218.089 296.900 L 218.178 303.400 218.299 297.100 L 218.420 290.800 234.210 290.800 L 250.000 290.800 250.000 297.800 C 250.000 306.354,249.069 308.100,245.854 305.571 C 245.274 305.115,244.800 304.925,244.800 305.148 C 244.800 305.781,246.476 306.800,247.515 306.800 C 250.296 306.800,250.800 305.289,250.800 296.940 L 250.800 290.400 234.400 290.400 L 218.000 290.400 218.089 296.900 M258.846 291.100 C 255.993 293.468,257.992 296.503,262.557 296.734 C 264.231 296.818,265.600 297.014,265.600 297.168 C 265.600 297.322,265.150 298.597,264.600 300.000 C 263.476 302.868,263.356 303.474,264.204 302.000 C 267.035 297.078,266.752 296.018,262.600 296.000 C 259.558 295.987,259.153 295.842,258.460 294.526 C 256.936 291.631,259.053 290.800,267.954 290.800 L 275.055 290.800 276.380 293.814 C 278.095 297.717,278.375 297.455,276.750 293.467 L 275.501 290.400 267.595 290.400 C 260.653 290.400,259.586 290.485,258.846 291.100 M193.707 295.625 C 191.555 296.281,189.200 298.820,189.200 300.484 C 189.200 303.515,191.121 304.764,198.027 306.222 C 208.285 308.388,211.386 310.946,211.365 317.225 C 211.336 326.279,200.323 330.563,188.920 325.957 C 187.808 325.508,187.541 325.529,186.889 326.120 C 185.195 327.652,183.037 326.672,182.565 324.155 C 181.121 316.456,185.239 311.910,188.142 317.998 C 188.975 319.745,191.338 321.577,192.779 321.593 C 193.097 321.597,192.405 321.125,191.241 320.545 C 189.481 319.668,188.994 319.181,188.344 317.645 C 187.057 314.603,184.908 313.856,182.982 315.782 C 181.876 316.888,181.514 323.696,182.452 325.754 C 183.270 327.551,186.415 327.993,187.371 326.446 C 187.527 326.195,188.630 326.426,190.310 327.062 C 200.846 331.049,211.987 326.007,211.998 317.246 C 212.006 311.060,208.358 307.949,198.600 305.819 C 189.969 303.934,187.726 301.762,190.798 298.263 C 194.499 294.048,202.517 295.456,204.459 300.663 C 204.882 301.797,205.527 302.840,205.892 302.980 C 206.504 303.215,206.505 303.179,205.907 302.517 C 205.551 302.123,204.927 300.905,204.521 299.812 C 203.198 296.246,198.120 294.280,193.707 295.625 M118.267 296.267 C 118.120 296.413,118.000 299.293,118.000 302.667 L 118.000 308.800 122.100 308.716 L 126.200 308.633 122.300 308.502 L 118.400 308.371 118.400 302.586 L 118.400 296.800 123.100 296.754 C 126.692 296.719,127.423 296.630,126.200 296.377 C 124.255 295.975,118.637 295.897,118.267 296.267 M224.500 296.257 C 224.148 296.405,224.000 297.628,224.000 300.379 C 224.000 303.732,223.881 304.443,223.171 305.346 C 221.921 306.935,219.568 306.573,218.803 304.674 C 218.536 304.011,218.445 303.965,218.425 304.484 C 218.386 305.560,220.003 306.800,221.446 306.800 C 223.724 306.800,224.400 305.414,224.400 300.746 L 224.400 296.800 227.800 296.800 L 231.200 296.800 231.200 308.983 L 231.200 321.166 228.100 321.303 L 225.000 321.439 228.306 321.520 L 231.611 321.600 231.506 308.900 L 231.400 296.200 228.200 296.124 C 226.440 296.082,224.775 296.142,224.500 296.257 M237.481 296.252 C 237.326 296.407,237.200 302.173,237.200 309.067 L 237.200 321.600 240.500 321.520 L 243.800 321.439 240.700 321.303 L 237.600 321.166 237.600 308.983 L 237.600 296.800 240.986 296.800 L 244.371 296.800 244.509 300.700 L 244.648 304.600 244.624 300.400 L 244.600 296.200 241.181 296.086 C 239.301 296.023,237.636 296.098,237.481 296.252 M131.106 298.569 C 134.251 301.451,132.596 306.372,128.007 307.787 C 127.013 308.094,126.560 308.353,127.000 308.363 C 132.288 308.489,135.333 300.943,131.185 297.990 C 129.484 296.778,129.447 297.049,131.106 298.569 M278.028 297.280 C 277.980 297.759,283.226 310.979,283.623 311.380 C 284.237 311.999,284.101 311.586,281.836 305.968 C 279.353 299.808,278.069 296.878,278.028 297.280 M156.895 303.866 C 154.205 310.844,154.403 311.181,157.204 304.391 C 158.384 301.530,159.469 299.327,159.615 299.495 C 159.934 299.862,164.004 310.072,164.001 310.500 C 164.001 310.665,161.930 310.800,159.400 310.800 C 156.089 310.800,154.800 310.666,154.800 310.320 C 154.800 309.968,154.682 309.958,154.355 310.285 C 153.335 311.305,154.519 311.600,159.624 311.600 C 162.484 311.600,164.800 311.436,164.800 311.234 C 164.800 310.047,159.803 298.397,159.296 298.404 C 159.133 298.406,158.053 300.863,156.895 303.866 M271.600 298.776 C 271.600 298.983,271.756 299.249,271.948 299.368 C 272.139 299.486,273.253 301.922,274.423 304.782 C 275.594 307.642,276.617 309.916,276.698 309.835 C 276.818 309.715,274.348 303.057,272.790 299.300 C 272.421 298.410,271.600 298.049,271.600 298.776 M269.575 303.443 C 268.186 306.659,266.800 310.458,266.800 311.048 C 266.800 311.489,267.844 311.600,272.000 311.600 C 275.893 311.600,277.200 311.474,277.201 311.100 C 277.201 310.720,276.000 310.630,272.198 310.723 L 267.194 310.846 267.952 308.923 C 268.369 307.865,269.181 305.845,269.755 304.433 C 270.976 301.429,270.819 300.564,269.575 303.443 M259.732 312.093 C 256.938 319.027,255.973 321.027,255.372 321.122 C 251.568 321.726,250.449 325.489,253.600 327.082 C 254.966 327.773,265.425 327.778,266.788 327.088 C 270.277 325.323,268.712 321.200,264.554 321.200 C 263.043 321.200,263.040 321.184,264.044 318.500 C 264.376 317.610,264.465 317.600,271.985 317.600 L 279.589 317.600 280.195 319.049 C 281.043 321.080,280.991 321.200,279.254 321.200 C 277.526 321.200,275.584 322.446,275.625 323.529 C 275.644 324.022,275.744 323.968,276.003 323.326 C 276.490 322.116,277.626 321.600,279.801 321.600 C 281.847 321.600,281.845 321.610,280.572 318.500 L 280.041 317.200 272.070 317.200 L 264.099 317.200 263.249 319.174 C 262.152 321.725,262.097 321.600,264.311 321.600 C 267.611 321.600,269.344 324.260,267.269 326.138 C 266.119 327.179,254.013 327.119,253.062 326.069 C 251.554 324.402,252.859 321.600,255.143 321.600 C 256.216 321.600,256.398 321.336,258.116 317.300 C 260.612 311.437,263.648 303.514,263.467 303.334 C 263.386 303.253,261.705 307.194,259.732 312.093 M197.800 312.369 C 202.618 313.557,204.558 314.400,205.188 315.578 C 206.209 317.485,205.135 319.833,202.801 320.800 C 202.126 321.079,201.658 321.392,201.761 321.494 C 202.145 321.879,205.135 319.861,205.559 318.931 C 207.191 315.349,205.137 313.427,198.139 311.987 C 192.759 310.880,192.581 311.082,197.800 312.369 M285.856 316.800 C 286.704 320.211,287.468 321.399,288.850 321.456 C 289.818 321.497,289.902 321.462,289.148 321.334 C 288.301 321.191,287.852 320.632,286.851 318.478 C 286.167 317.005,285.720 316.250,285.856 316.800 M150.694 319.154 C 149.781 321.723,149.724 321.610,151.900 321.533 C 153.641 321.471,153.674 321.452,152.300 321.309 C 150.619 321.133,150.447 320.643,151.410 318.780 L 152.021 317.600 159.567 317.600 L 167.113 317.600 167.757 319.208 C 168.110 320.093,168.400 320.892,168.400 320.985 C 168.400 321.078,167.635 321.223,166.700 321.307 L 165.000 321.460 166.950 321.530 L 168.900 321.600 168.644 320.321 C 168.013 317.167,168.112 317.200,159.285 317.200 L 151.388 317.200 150.694 319.154 M174.963 320.889 C 175.019 321.168,175.731 321.505,176.544 321.637 C 179.023 322.040,180.019 324.381,178.400 326.000 C 177.571 326.829,165.697 327.253,164.560 326.494 C 163.166 325.563,163.071 323.757,164.338 322.283 C 164.900 321.630,164.893 321.589,164.266 321.830 C 161.870 322.750,162.650 326.746,165.359 327.426 C 168.160 328.128,178.059 327.416,178.836 326.456 C 180.569 324.314,179.113 321.200,176.379 321.200 C 175.767 321.200,175.175 321.016,175.063 320.790 C 174.952 320.565,174.906 320.609,174.963 320.889 M127.405 322.405 C 128.360 323.461,128.353 325.553,127.390 326.257 C 126.032 327.250,109.025 327.025,108.000 326.000 C 107.156 325.156,106.924 323.418,107.600 323.000 C 107.820 322.864,107.994 322.538,107.987 322.276 C 107.961 321.311,106.800 323.389,106.800 324.401 C 106.800 327.317,108.175 327.676,118.755 327.523 C 127.154 327.402,127.283 327.387,128.036 326.456 C 129.265 324.936,128.632 321.600,127.115 321.600 C 126.874 321.600,127.004 321.962,127.405 322.405 M139.823 322.489 C 138.988 323.680,139.051 325.183,139.986 326.400 C 141.158 327.925,154.007 327.972,155.235 326.456 C 156.436 324.973,155.840 321.600,154.377 321.600 C 154.170 321.600,154.360 321.960,154.800 322.400 C 155.799 323.399,155.834 325.265,154.869 326.138 C 154.251 326.697,153.126 326.800,147.669 326.800 C 140.562 326.800,139.600 326.490,139.600 324.200 C 139.600 323.650,139.960 322.840,140.400 322.400 C 140.840 321.960,141.030 321.600,140.823 321.600 C 140.615 321.600,140.165 322.000,139.823 322.489 M291.213 322.732 C 293.493 325.816,291.676 326.802,283.726 326.794 C 276.984 326.787,276.656 326.719,276.045 325.189 C 275.688 324.293,275.648 324.279,275.625 325.038 C 275.558 327.263,287.014 328.860,290.400 327.097 C 292.447 326.031,292.765 321.600,290.794 321.600 C 290.564 321.600,290.753 322.109,291.213 322.732 M196.705 322.283 C 197.202 322.379,197.922 322.375,198.305 322.275 C 198.687 322.175,198.280 322.096,197.400 322.101 C 196.520 322.105,196.207 322.187,196.705 322.283 M223.285 322.813 C 222.506 324.060,222.718 325.179,223.969 326.431 L 225.138 327.600 233.910 327.600 C 242.712 327.600,244.914 327.322,245.363 326.153 C 245.557 325.648,245.461 325.652,244.706 326.181 C 243.185 327.246,225.088 327.088,224.000 326.000 C 223.099 325.099,223.000 324.322,223.632 323.139 C 224.199 322.081,223.911 321.810,223.285 322.813 " stroke="none" fill="#55668c" fill-rule="evenodd"></path><path id="path4" d="M171.739 114.943 L 170.200 116.600 171.800 115.158 C 173.247 113.854,173.572 113.734,175.200 113.904 C 177.436 114.136,177.212 113.788,174.939 113.498 C 173.393 113.301,173.171 113.401,171.739 114.943 M187.200 117.000 C 188.190 117.530,189.270 117.970,189.600 117.978 C 189.930 117.986,189.237 117.544,188.060 116.996 C 185.348 115.734,184.839 115.736,187.200 117.000 M174.800 117.153 C 174.800 118.306,179.357 121.399,184.200 123.533 C 205.952 133.117,205.777 132.951,204.385 142.683 C 203.757 147.069,203.809 147.020,201.399 145.509 C 200.299 144.820,195.800 142.711,191.400 140.823 C 182.063 136.816,178.299 134.803,176.500 132.853 C 175.785 132.078,175.200 131.653,175.200 131.908 C 175.200 133.628,181.022 137.084,191.200 141.405 C 204.760 147.163,205.627 148.086,205.049 156.162 C 204.616 162.202,204.608 162.212,201.706 160.428 C 200.658 159.784,196.380 157.788,192.200 155.993 C 182.726 151.924,179.476 150.230,177.455 148.308 C 176.582 147.478,175.778 146.888,175.668 146.998 C 174.644 148.022,182.257 152.460,192.400 156.753 C 205.000 162.085,205.840 162.951,205.515 170.269 C 205.414 172.541,205.462 174.400,205.623 174.400 C 206.643 174.400,207.070 168.461,206.270 165.398 C 205.502 162.455,205.167 159.600,205.591 159.600 C 205.765 159.600,206.001 159.240,206.116 158.799 C 206.231 158.359,206.207 158.072,206.063 158.161 C 205.918 158.250,205.800 156.285,205.800 153.794 C 205.800 149.854,205.693 149.119,204.976 148.133 C 204.166 147.020,204.163 146.954,204.849 144.400 C 206.397 138.630,205.701 134.325,202.772 131.553 L 200.821 129.705 201.671 128.953 C 202.662 128.075,204.802 124.836,204.796 124.222 C 204.794 123.990,204.272 124.700,203.636 125.800 C 203.001 126.900,201.948 128.304,201.297 128.920 L 200.114 130.040 198.757 129.256 C 198.011 128.825,194.880 127.449,191.800 126.197 C 184.022 123.036,177.890 119.836,176.433 118.176 C 175.202 116.774,174.800 116.523,174.800 117.153 M168.101 121.400 C 168.105 122.280,168.187 122.593,168.283 122.095 C 168.379 121.598,168.375 120.878,168.275 120.495 C 168.175 120.113,168.096 120.520,168.101 121.400 M168.790 123.894 C 169.027 124.385,170.290 125.541,171.595 126.461 C 173.759 127.988,173.908 128.185,173.284 128.700 C 172.647 129.226,172.652 129.249,173.356 129.024 C 173.772 128.891,174.553 129.070,175.091 129.423 C 176.195 130.146,176.783 129.923,175.948 129.097 C 175.646 128.799,174.230 127.774,172.800 126.818 C 171.370 125.863,169.785 124.613,169.279 124.040 C 168.468 123.125,168.410 123.107,168.790 123.894 M176.400 125.973 C 176.400 128.415,194.977 136.144,197.086 134.579 C 198.245 133.719,197.149 133.041,191.600 131.184 C 188.850 130.264,184.646 128.541,182.258 127.355 C 177.555 125.021,176.400 124.748,176.400 125.973 M171.080 131.300 C 169.657 133.060,168.788 134.509,168.816 135.074 C 168.825 135.253,169.122 134.860,169.477 134.200 C 169.832 133.540,170.746 132.235,171.509 131.300 C 172.272 130.365,172.797 129.600,172.675 129.600 C 172.553 129.600,171.835 130.365,171.080 131.300 M245.300 131.396 C 244.585 131.707,244.000 132.066,244.000 132.195 C 244.000 132.323,244.405 132.209,244.900 131.942 C 245.395 131.674,246.970 131.333,248.400 131.184 L 251.000 130.914 248.800 130.872 C 247.590 130.850,246.015 131.086,245.300 131.396 M252.520 131.493 C 253.665 131.612,254.127 131.881,254.395 132.586 C 254.591 133.101,254.943 133.641,255.178 133.787 C 255.720 134.122,254.784 131.921,254.208 131.506 C 253.984 131.344,253.170 131.240,252.400 131.273 L 251.000 131.334 252.520 131.493 M251.957 135.453 C 250.987 136.625,251.281 144.776,252.584 152.800 C 253.255 156.937,253.736 161.493,253.760 163.941 L 253.800 168.081 251.737 169.981 C 250.602 171.026,248.489 172.397,247.037 173.029 C 244.540 174.117,243.734 174.800,244.946 174.800 C 248.337 174.800,254.449 169.431,254.715 166.218 C 254.874 164.297,255.013 163.995,255.750 163.960 C 256.499 163.925,256.482 163.888,255.600 163.643 C 254.702 163.395,254.575 163.102,254.352 160.783 C 254.216 159.362,253.631 155.101,253.052 151.313 C 251.960 144.167,251.701 138.039,252.411 136.171 C 252.910 134.858,252.711 134.543,251.957 135.453 M168.432 136.326 C 168.378 137.909,170.057 140.383,171.800 141.289 C 172.240 141.518,171.848 141.002,170.930 140.142 C 170.011 139.282,169.141 138.043,168.995 137.389 C 168.585 135.547,168.466 135.323,168.432 136.326 M242.252 139.700 C 241.872 141.118,241.960 143.200,242.400 143.200 C 242.620 143.200,242.800 142.210,242.800 141.000 C 242.800 138.643,242.638 138.259,242.252 139.700 M234.900 139.491 C 235.725 139.578,237.075 139.578,237.900 139.491 C 238.725 139.405,238.050 139.334,236.400 139.334 C 234.750 139.334,234.075 139.405,234.900 139.491 M177.184 140.619 C 175.745 142.353,192.941 150.488,196.870 149.932 C 199.488 149.561,197.919 148.240,192.800 146.506 C 190.050 145.574,186.090 143.976,184.000 142.956 C 177.897 139.975,177.758 139.927,177.184 140.619 M244.951 141.851 C 244.005 145.622,247.216 162.660,249.002 163.345 C 250.379 163.874,250.496 162.510,249.450 158.113 C 248.166 152.713,247.204 146.789,247.202 144.274 C 247.199 141.163,245.566 139.404,244.951 141.851 M174.090 142.602 C 174.249 142.773,173.694 143.743,172.856 144.757 C 170.515 147.587,169.198 149.704,169.223 150.593 C 169.238 151.148,169.394 150.991,169.723 150.089 C 171.065 146.401,174.848 142.860,175.800 144.400 C 175.936 144.620,176.217 144.800,176.424 144.800 C 177.200 144.800,176.742 144.169,175.295 143.246 C 174.473 142.721,173.930 142.431,174.090 142.602 M239.239 144.460 C 238.503 146.570,238.745 151.803,239.965 160.200 C 242.440 177.238,242.393 177.408,234.042 181.560 C 229.455 183.840,229.602 183.878,229.593 180.433 C 229.589 178.985,229.048 174.380,228.393 170.200 C 226.824 160.204,226.525 155.536,227.310 153.300 C 227.959 151.451,227.451 150.904,226.752 152.700 C 226.040 154.533,226.297 160.621,227.390 167.800 C 229.995 184.895,229.709 185.972,221.476 190.038 C 217.232 192.133,217.202 192.126,217.193 189.100 C 217.189 187.725,216.642 183.180,215.978 179.000 C 214.545 169.977,214.085 163.480,214.745 161.587 C 215.298 159.998,215.064 159.571,214.349 160.866 C 213.522 162.364,213.829 168.596,215.173 177.600 C 217.382 192.396,217.006 194.111,210.838 197.352 C 207.437 199.139,207.742 199.200,207.427 196.674 C 206.909 192.530,204.517 190.709,193.857 186.344 C 185.911 183.090,180.915 180.481,178.841 178.502 C 176.610 176.373,176.098 176.646,178.226 178.831 C 179.855 180.504,185.544 183.495,193.400 186.810 C 206.369 192.281,208.056 194.333,206.441 202.672 C 206.263 203.591,206.246 204.551,206.403 204.805 C 206.791 205.433,207.138 204.457,207.448 201.866 L 207.695 199.800 210.288 198.625 C 213.204 197.303,216.685 194.398,217.038 192.990 C 217.217 192.277,217.646 191.995,218.861 191.790 C 222.599 191.158,226.469 188.517,229.902 184.253 C 230.178 183.910,231.168 183.426,232.102 183.178 C 236.151 182.100,242.000 177.980,242.000 176.205 C 242.000 175.957,242.495 175.556,243.100 175.314 C 244.189 174.877,244.190 174.874,243.200 174.936 C 242.211 174.999,242.197 174.957,241.957 171.000 C 241.823 168.800,241.252 164.030,240.687 160.400 C 239.033 149.763,238.949 146.922,240.197 143.900 C 240.360 143.505,240.310 143.200,240.082 143.200 C 239.860 143.200,239.481 143.767,239.239 144.460 M230.000 146.763 C 230.000 148.173,229.912 148.307,229.100 148.135 C 228.307 147.968,228.283 147.998,228.900 148.392 C 229.307 148.653,229.600 149.333,229.600 150.020 C 229.600 150.669,229.780 151.200,230.000 151.200 C 230.231 151.200,230.400 149.933,230.400 148.200 C 230.400 146.550,230.310 145.200,230.200 145.200 C 230.090 145.200,230.000 145.903,230.000 146.763 M232.529 149.842 C 231.264 153.138,234.877 171.600,236.786 171.600 C 237.916 171.600,237.956 170.440,236.961 166.493 C 235.876 162.189,234.800 155.283,234.800 152.622 C 234.800 149.789,233.268 147.915,232.529 149.842 M169.225 152.506 C 169.211 152.894,169.785 153.802,170.500 154.524 C 171.215 155.246,171.405 155.379,170.923 154.819 C 170.441 154.258,169.867 153.350,169.648 152.800 C 169.367 152.092,169.243 152.006,169.225 152.506 M217.680 154.663 C 217.605 156.589,217.541 156.710,216.700 156.490 C 215.843 156.267,215.833 156.289,216.500 156.956 C 216.885 157.342,217.205 158.229,217.212 158.929 C 217.222 159.980,217.294 160.080,217.629 159.505 C 217.852 159.123,217.972 157.413,217.897 155.705 C 217.802 153.528,217.737 153.216,217.680 154.663 M177.382 155.630 C 176.052 157.781,196.678 166.675,198.343 164.668 C 199.086 163.774,197.791 162.979,193.077 161.435 C 190.706 160.658,186.498 158.937,183.726 157.611 C 178.511 155.117,177.830 154.904,177.382 155.630 M173.513 157.052 L 174.825 158.122 173.913 159.158 C 173.072 160.113,173.068 160.137,173.864 159.468 C 174.664 158.795,174.817 158.788,175.944 159.371 C 178.753 160.824,177.342 159.022,174.230 157.183 C 172.293 156.038,172.260 156.032,173.513 157.052 M207.325 156.700 C 206.906 157.085,206.760 157.272,207.003 157.116 C 207.245 156.960,207.883 156.656,208.422 156.441 C 209.040 156.194,209.159 156.041,208.744 156.025 C 208.384 156.011,207.745 156.315,207.325 156.700 M220.164 158.058 C 218.565 160.646,222.403 180.000,224.515 180.000 C 225.486 180.000,225.371 178.597,223.814 171.400 C 223.243 168.760,222.665 164.980,222.530 163.000 C 222.200 158.147,221.287 156.241,220.164 158.058 M171.847 161.703 C 168.522 166.063,168.867 168.528,173.231 171.589 L 175.484 173.170 173.842 174.943 C 172.939 175.919,171.859 177.320,171.443 178.058 C 170.513 179.707,170.929 179.284,173.170 176.300 C 174.999 173.865,175.193 173.754,176.448 174.426 C 178.757 175.661,177.646 174.262,174.678 172.196 C 169.418 168.534,168.811 166.472,171.795 162.407 C 173.407 160.211,173.452 159.598,171.847 161.703 M176.400 162.097 C 176.400 163.727,181.456 166.860,189.800 170.400 C 205.655 177.125,207.280 178.750,206.051 186.646 C 205.818 188.139,205.721 189.455,205.836 189.569 C 206.619 190.352,207.426 184.811,206.977 181.729 C 206.322 177.230,204.563 175.931,192.200 170.816 C 183.965 167.408,179.382 164.939,177.746 163.029 C 176.899 162.039,176.400 161.694,176.400 162.097 M257.891 164.289 C 258.601 164.377,259.861 164.379,260.691 164.292 C 261.521 164.205,260.940 164.133,259.400 164.131 C 257.860 164.129,257.181 164.200,257.891 164.289 M207.546 166.958 C 206.262 169.777,209.951 188.200,211.800 188.200 C 212.935 188.200,213.003 186.734,212.038 183.050 C 211.231 179.967,210.273 174.198,209.705 169.004 C 209.366 165.893,208.434 165.010,207.546 166.958 M178.000 171.195 C 178.000 173.702,197.780 181.574,199.024 179.562 C 199.524 178.752,198.230 178.049,192.560 176.053 C 189.457 174.961,185.276 173.243,183.268 172.234 C 179.224 170.203,178.000 169.962,178.000 171.195 M170.189 180.470 C 170.033 180.981,169.612 181.757,169.253 182.193 C 168.633 182.946,168.638 182.957,169.342 182.410 C 170.097 181.822,170.965 180.031,170.648 179.714 C 170.552 179.618,170.345 179.958,170.189 180.470 M178.539 185.815 C 177.738 187.902,196.022 196.088,198.963 194.959 C 200.934 194.202,199.610 193.263,194.000 191.441 C 191.470 190.618,187.210 188.878,184.534 187.573 C 179.259 185.001,178.893 184.893,178.539 185.815 M167.679 188.258 L 167.600 189.916 166.100 189.567 C 165.275 189.376,163.970 189.237,163.200 189.259 C 162.092 189.291,162.238 189.364,163.897 189.606 C 167.014 190.061,167.200 190.188,167.200 191.867 C 167.200 192.907,167.327 193.233,167.619 192.941 C 167.862 192.698,167.979 191.284,167.898 189.561 C 167.822 187.933,167.723 187.346,167.679 188.258 M156.960 190.560 C 156.212 191.308,155.600 192.145,155.600 192.419 C 155.600 192.694,156.011 192.307,156.514 191.559 C 157.036 190.783,158.022 189.995,158.814 189.723 C 159.934 189.337,160.019 189.241,159.260 189.223 C 158.703 189.209,157.766 189.754,156.960 190.560 M170.243 191.433 C 170.109 191.781,170.027 193.446,170.060 195.133 C 170.093 196.820,170.187 197.660,170.270 197.000 C 170.353 196.340,170.800 194.959,171.264 193.930 C 172.134 192.004,172.054 190.800,171.055 190.800 C 170.742 190.800,170.376 191.085,170.243 191.433 M177.794 192.934 C 179.131 194.975,183.177 197.281,191.582 200.793 C 207.320 207.368,207.835 207.963,206.941 218.540 C 206.638 222.127,206.529 222.179,203.267 220.280 C 202.020 219.554,198.300 217.824,195.000 216.436 C 185.593 212.481,181.588 210.409,179.702 208.523 C 178.766 207.587,178.000 207.024,178.000 207.272 C 178.000 208.945,182.674 211.804,191.820 215.726 C 207.798 222.576,208.572 223.408,207.503 232.600 C 206.975 237.147,206.934 237.181,204.132 235.485 C 202.849 234.708,199.100 232.956,195.800 231.592 C 187.354 228.099,181.489 225.034,179.996 223.334 C 179.311 222.554,178.627 222.043,178.475 222.197 C 177.390 223.306,183.926 227.139,195.198 232.005 C 207.917 237.496,209.290 239.055,208.120 246.687 C 207.687 249.512,207.836 250.593,208.496 249.415 C 209.659 247.335,209.178 239.529,207.791 237.992 C 207.365 237.519,207.334 237.030,207.653 235.792 C 208.975 230.654,208.950 226.219,207.583 223.520 C 206.889 222.150,206.877 221.873,207.417 219.800 C 208.178 216.876,208.144 211.465,207.350 209.400 C 207.012 208.520,206.635 207.378,206.514 206.863 C 206.378 206.289,206.184 206.103,206.011 206.382 C 205.819 206.693,204.787 206.328,202.757 205.233 C 201.122 204.352,196.548 202.263,192.592 200.592 C 184.288 197.085,180.926 195.299,178.999 193.373 C 177.406 191.779,176.921 191.603,177.794 192.934 M164.536 193.700 C 163.754 194.955,163.951 201.933,164.963 208.800 C 167.566 226.466,167.321 227.510,159.689 231.277 C 156.045 233.075,155.686 233.497,158.530 232.641 C 162.151 231.551,166.534 228.201,167.055 226.124 C 167.189 225.590,167.477 225.313,167.743 225.461 C 168.017 225.615,168.000 225.502,167.700 225.179 C 167.399 224.854,167.199 223.519,167.198 221.820 C 167.197 220.269,166.653 215.670,165.988 211.600 C 164.425 202.020,164.112 197.170,164.909 194.900 C 165.467 193.312,165.237 192.574,164.536 193.700 M155.328 196.400 C 155.328 197.830,155.401 198.415,155.489 197.700 C 155.578 196.985,155.578 195.815,155.489 195.100 C 155.401 194.385,155.328 194.970,155.328 196.400 M170.422 199.400 C 170.433 200.740,171.787 207.520,172.107 207.841 C 172.220 207.954,172.705 207.495,173.184 206.822 C 174.380 205.143,173.777 202.119,171.786 199.800 L 170.412 198.200 170.422 199.400 M157.764 199.658 C 156.119 202.321,159.970 221.600,162.147 221.600 C 163.083 221.600,162.955 220.037,161.459 213.200 C 160.906 210.670,160.276 206.673,160.061 204.317 C 159.603 199.318,158.880 197.852,157.764 199.658 M178.800 200.964 C 178.800 203.597,198.864 211.762,200.164 209.659 C 200.648 208.875,199.122 208.021,194.400 206.434 C 191.650 205.510,187.403 203.775,184.963 202.577 C 180.474 200.375,178.800 199.936,178.800 200.964 M179.808 215.587 C 178.342 217.960,197.581 226.591,200.384 224.818 C 201.218 224.291,199.928 222.932,198.259 222.580 C 196.031 222.110,189.512 219.555,185.458 217.564 C 180.749 215.251,180.146 215.040,179.808 215.587 M151.293 220.400 C 151.293 221.170,151.375 221.485,151.476 221.100 C 151.576 220.715,151.576 220.085,151.476 219.700 C 151.375 219.315,151.293 219.630,151.293 220.400 M170.800 223.671 C 169.575 224.252,169.217 224.577,169.679 224.688 C 170.053 224.777,170.716 224.659,171.153 224.425 C 172.220 223.854,172.418 223.889,172.145 224.600 C 172.018 224.930,172.006 225.200,172.118 225.200 C 172.230 225.200,172.510 224.660,172.740 224.000 C 173.236 222.579,173.138 222.562,170.800 223.671 M171.646 226.553 C 171.589 227.976,172.851 230.088,174.307 231.006 C 175.171 231.552,175.085 231.382,173.895 230.197 C 173.067 229.373,172.309 228.317,172.211 227.849 C 172.112 227.382,171.955 226.640,171.862 226.200 C 171.747 225.656,171.678 225.768,171.646 226.553 M154.864 231.900 C 154.812 233.279,154.932 233.599,155.500 233.594 C 155.959 233.590,156.039 233.485,155.733 233.290 C 155.475 233.127,155.189 232.365,155.097 231.597 C 154.936 230.266,154.925 230.280,154.864 231.900 M180.143 231.005 C 179.432 232.856,197.584 241.094,200.402 240.199 C 202.663 239.482,201.352 238.529,195.200 236.419 C 192.450 235.476,188.259 233.736,185.887 232.552 C 181.292 230.259,180.510 230.049,180.143 231.005 M177.400 232.965 C 177.840 233.318,178.536 234.010,178.947 234.503 C 179.561 235.240,179.668 235.271,179.547 234.681 C 179.466 234.286,178.770 233.594,178.000 233.143 C 177.230 232.692,176.960 232.612,177.400 232.965 M176.200 238.800 C 175.859 239.460,175.669 240.000,175.779 240.000 C 175.889 240.000,176.259 239.460,176.600 238.800 C 176.941 238.140,177.131 237.600,177.021 237.600 C 176.911 237.600,176.541 238.140,176.200 238.800 M207.632 250.943 C 207.609 251.480,207.407 251.612,206.900 251.419 C 206.339 251.205,206.299 251.252,206.700 251.656 C 207.310 252.271,208.208 251.567,207.877 250.735 C 207.739 250.390,207.652 250.464,207.632 250.943 " stroke="none" fill="#f7dd85" fill-rule="evenodd"></path></g></svg>
