<?xml version="1.0" standalone="no"?>
<!DOCTYPE svg PUBLIC "-//W3C//DTD SVG 20010904//EN"
 "http://www.w3.org/TR/2001/REC-SVG-20010904/DTD/svg10.dtd">
<svg version="1.0" xmlns="http://www.w3.org/2000/svg"
 width="556.000000pt" height="427.000000pt" viewBox="0 0 556.000000 427.000000"
 preserveAspectRatio="xMidYMid meet">

<g transform="translate(0.000000,427.000000) scale(0.100000,-0.100000)"
fill="#000000" stroke="none">
<path d="M1820 2801 c-8 -4 -201 -111 -428 -236 -354 -196 -410 -230 -395
-240 39 -26 819 -453 840 -459 55 -17 117 56 94 112 -14 33 8 20 -324 204
-150 83 -273 151 -274 152 -1 1 127 73 284 161 157 87 294 171 305 184 48 62
-33 160 -102 122z"/>
<path d="M3673 2800 c-28 -12 -43 -40 -43 -84 0 -46 6 -50 333 -231 147 -82
266 -149 265 -150 -2 -2 -127 -71 -278 -155 -151 -84 -285 -162 -297 -173 -23
-20 -30 -66 -17 -102 9 -23 61 -47 87 -40 44 13 858 468 850 476 -22 20 -828
460 -851 464 -15 3 -37 0 -49 -5z"/>
<path d="M2704 1226 c-77 -34 -97 -115 -41 -170 25 -26 48 -37 110 -50 89 -20
114 -44 79 -78 -44 -45 -151 -28 -172 27 -11 30 -45 33 -60 6 -26 -49 1 -127
37 -105 13 8 26 7 48 -2 67 -29 189 -3 214 44 16 31 13 94 -7 118 -23 29 -45
39 -117 54 -80 17 -95 26 -95 55 0 44 72 71 121 45 10 -6 26 -26 34 -45 25
-61 65 -39 65 36 0 53 -20 80 -48 63 -12 -7 -25 -6 -42 3 -32 16 -86 16 -126
-1z"/>
<path d="M1814 1215 c-9 -23 3 -45 26 -45 19 0 20 -6 20 -129 0 -127 0 -130
-22 -133 -17 -2 -23 -10 -23 -28 0 -25 0 -25 106 -28 85 -2 108 0 119 13 21
26 -5 45 -61 45 l-49 0 0 35 0 35 55 0 c64 0 126 27 151 65 36 55 14 127 -49
165 -27 17 -51 20 -150 20 -95 0 -119 -3 -123 -15z m236 -55 c27 -14 42 -47
35 -70 -9 -29 -56 -50 -110 -50 l-45 0 0 65 0 65 51 0 c28 0 59 -5 69 -10z"/>
<path d="M2220 1215 c-19 -23 5 -45 47 -45 29 0 34 -3 29 -17 -4 -10 -27 -68
-52 -130 -38 -91 -51 -112 -70 -117 -27 -7 -33 -40 -8 -50 33 -13 151 -6 164
9 17 20 -3 45 -36 45 -22 0 -23 2 -12 25 11 24 16 25 89 25 67 0 80 -3 89 -19
14 -28 13 -29 -17 -33 -22 -2 -28 -8 -28 -28 0 -25 1 -25 85 -25 84 0 85 0 85
25 0 17 -6 26 -20 28 -16 2 -34 37 -84 162 l-65 160 -92 0 c-69 0 -95 -4 -104
-15z m200 -186 c0 -5 -22 -9 -50 -9 -27 0 -50 2 -50 4 0 2 12 30 26 62 l26 59
24 -54 c13 -29 24 -57 24 -62z"/>
<path d="M3000 1161 c0 -81 6 -101 29 -101 28 0 41 21 41 67 0 42 0 43 35 43
l35 0 0 -129 0 -130 -42 -3 c-38 -3 -43 -6 -43 -28 0 -25 1 -25 100 -28 118
-3 145 2 145 27 0 21 -19 31 -61 31 l-29 0 0 130 0 130 35 0 c34 0 35 -1 35
-39 0 -51 8 -71 29 -71 32 0 41 22 41 97 l0 73 -175 0 -175 0 0 -69z"/>
<path d="M3424 1215 c-12 -29 4 -45 45 -45 l39 0 -51 -130 c-40 -100 -56 -130
-72 -132 -14 -2 -20 -11 -20 -28 0 -25 1 -25 85 -25 84 0 85 0 85 25 0 20 -6
26 -27 28 -31 4 -32 5 -18 33 9 16 22 19 89 19 73 0 78 -1 89 -25 11 -23 10
-25 -12 -25 -33 0 -53 -25 -36 -45 13 -15 131 -22 164 -9 25 10 19 43 -8 50
-26 6 -31 17 -114 224 l-38 95 -97 3 c-80 2 -98 0 -103 -13z m181 -131 c14
-31 25 -58 25 -60 0 -2 -22 -4 -50 -4 -27 0 -50 4 -50 9 0 11 42 111 46 111 3
0 15 -25 29 -56z"/>
</g>
</svg>
